<svg width="95" height="92" viewBox="0 0 95 92" fill="none" xmlns="http://www.w3.org/2000/svg">
<path fill-rule="evenodd" clip-rule="evenodd" d="M56.9089 4.13199C53.4967 7.76919 52.6746 8.16565 50.0959 7.41561C45.315 6.02538 42.8559 7.55683 38.8702 14.4086C38.7774 14.5687 37.4158 14.2036 35.8438 13.5979C31.9201 12.0842 25.6435 15.3699 20.8801 21.4278C18.8057 24.067 16.3704 26.0472 15.1553 26.0838C12.4322 26.1665 10.5652 28.087 10.5652 30.8089C10.5652 32.1793 9.47286 33.4503 7.5543 34.3112C4.04827 35.8845 1.95539 40.7466 3.27156 44.2593C3.91418 45.9728 3.62639 47.2563 2.19985 49.043C-0.402591 52.3026 -0.261278 56.0611 2.57118 58.9242C3.84816 60.2151 4.7569 62.211 4.59084 63.3606C4.41858 64.5604 5.44387 66.5511 6.99523 68.0292C9.27275 70.1988 10.7158 70.6057 16.1363 70.6057H22.5717L21.8249 74.745C20.7418 80.7547 21.8022 85.4338 25.0462 88.9559C28.8906 93.1287 32.5111 93.0168 36.8784 88.5877C40.467 84.9484 43.0436 77.7493 42.2556 73.5671C41.8368 71.3484 42.1607 71.1287 45.8462 71.1287C50.2682 71.1287 53.0697 69.9676 56.8893 66.5522C59.2844 64.4109 59.3463 64.4056 58.5716 66.4214C58.1301 67.5721 57.536 71.8348 57.2523 75.8946C56.7799 82.6617 56.9522 83.5299 59.3287 86.3313C61.4299 88.8094 62.743 89.3879 66.2655 89.3879C69.7385 89.3879 71.1062 88.8032 73.0795 86.4767C75.2291 83.9421 75.5489 82.5058 75.5489 75.3831C75.5489 66.4047 76.8186 64.074 81.3788 64.6797C84.8518 65.1421 90.5075 61.2632 92.4663 57.0768C97.4329 46.4624 94.6963 35.5623 87.0654 35.5623C85.4243 35.5623 85.055 34.8792 85.1365 31.9931C85.1912 30.0306 84.5857 27.6299 83.7915 26.6592C82.9962 25.6874 82.4547 23.1747 82.5887 21.0742C82.8569 16.8449 79.6222 10.4565 77.2126 10.4565C76.4081 10.4565 75.2683 9.05481 74.6793 7.3403C73.4126 3.65394 67.9973 0.00523668 63.7848 6.3142e-06C61.6341 -0.0031319 59.6939 1.16324 56.9089 4.13199ZM71.4487 6.86329C72.0016 8.33929 72.4544 10.9137 72.4544 12.5843C72.4544 14.78 72.8608 15.463 73.9212 15.0509C74.7278 14.7371 76.3967 15.0279 77.6314 15.6974C79.4633 16.6911 79.7924 17.618 79.4262 20.7468C79.1787 22.8546 78.6206 25.4028 78.1843 26.4091C77.5778 27.8088 77.8749 28.2398 79.4437 28.2398C82.2112 28.2398 83.0818 32.0956 81.1849 35.9525C79.2591 39.8658 79.2282 39.7466 82.1865 39.7466C86.0092 39.7466 89.737 41.4977 90.9974 43.8848C92.5952 46.9143 90.6395 53.6217 86.9292 57.8321C84.1019 61.0404 83.8162 61.1314 80.533 59.8594C77.4231 58.6554 76.961 58.7296 75.6809 60.644C73.6354 63.7027 69.7632 63.3376 67.6332 59.8835C66.6564 58.3018 65.7291 56.8216 65.5713 56.5956C65.4135 56.3707 64.5759 56.7808 63.7115 57.5089C62.3819 58.6282 62.1395 58.4681 62.1395 56.4733C62.1395 54.1374 58.3406 46.8682 56.7696 46.1977C56.3209 46.0063 56.2343 44.0689 56.5778 41.891C57.2699 37.4986 55.8763 33.9262 53.1151 33.0172C52.1217 32.6898 50.5312 30.5401 49.5802 28.2387C48.3836 25.3422 47.2191 24.0555 45.7946 24.0555C42.7507 24.0555 41.8677 18.7352 44.236 14.6691C46.6105 10.5925 49.3192 9.73162 52.0299 12.193C54.0919 14.0655 54.1816 14.0613 55.308 12.0664C58.2694 6.8204 61.9198 4.18011 66.2118 4.18011C69.8045 4.18011 70.5946 4.58494 71.4487 6.86329ZM39.4984 19.9685C40.1338 21.1725 40.3556 23.364 39.9904 24.8379C39.2209 27.9458 40.6506 29.2461 44.8621 29.2702C47.3088 29.2838 47.6987 29.7085 47.6987 32.355C47.6987 34.9221 48.1608 35.4775 50.526 35.7548C54.3972 36.2077 54.6613 38.9808 51.3213 44.0993C48.4063 48.567 48.5033 49.361 52.0279 49.906C55.6412 50.4657 56.9821 52.3088 56.9821 56.7149C56.9821 60.0194 56.323 61.4986 53.7783 63.9098C49.2057 68.2416 45.5213 68.319 41.6521 64.1671L39.2147 61.5519L36.374 65.0029C33.3838 68.6349 32.2862 68.5972 26.9205 64.6734C25.5682 63.6849 24.875 63.7895 23.4949 65.1891C22.3097 66.3911 20.0384 66.9444 16.291 66.9444C9.8772 66.9444 7.99887 65.3743 8.98187 60.8333C9.57395 58.0999 9.3006 57.6522 6.41966 56.6333C3.89974 55.7431 3.26744 54.9742 3.52737 53.1227C3.72335 51.7314 4.71255 50.5975 5.92352 50.3778C9.3202 49.7627 10.0515 48.338 8.09583 46.1454C6.93953 44.8504 6.41244 42.8733 6.62493 40.6295C6.91684 37.531 7.33768 37.0937 10.3073 36.804C13.4018 36.5006 13.6597 36.1889 13.6597 32.7504C13.6597 29.2262 13.8165 29.0557 16.553 29.6112C19.0337 30.1143 19.6062 29.767 20.5727 27.1717C21.2328 25.3976 23.7445 22.8305 26.6492 20.9622C32.6081 17.1305 37.7892 16.7298 39.4984 19.9685ZM53.5442 19.5229C52.1506 20.9361 52.917 24.8327 54.9573 26.7052C56.5386 28.1571 59.076 28.7178 65.2268 28.9762C72.5782 29.2848 73.5086 29.1059 74.5194 27.1885C76.1399 24.1193 74.7505 22.4707 72.3781 24.6486C70.5864 26.293 70.2563 26.2983 67.8859 24.7239C65.5073 23.1433 65.2546 23.1517 64.2809 24.8474C63.3175 26.5242 63.2308 26.5284 63.202 24.9018C63.1555 22.2385 61.2081 21.547 59.1276 23.4561C57.5535 24.9007 57.0997 24.9363 56.0806 23.6915C55.4225 22.887 55.1729 21.4623 55.5277 20.5271C56.1662 18.8398 54.8655 18.1818 53.5442 19.5229ZM37.3643 36.646C36.4586 38.3626 35.5849 38.6953 33.3167 38.1911C31.2424 37.7287 30.2532 38.0007 29.8179 39.1524C29.4548 40.1096 28.545 40.4987 27.562 40.1158C26.4429 39.6807 25.7301 40.1891 25.3402 41.7027C24.4057 45.3253 21.5908 44.5271 22.1313 40.7926C22.6181 37.4316 22.0343 36.9023 20.0549 38.9097C18.0858 40.9067 18.616 44.7154 21.1101 46.4864C24.4758 48.8777 25.9271 48.5273 29.7766 44.3869C31.6828 42.3377 33.7314 40.9652 34.3276 41.3397C35.7685 42.2435 40.4783 39.0499 40.4783 37.169C40.4783 34.6564 38.5814 34.3384 37.3643 36.646ZM64.3036 42.6934C62.8626 45.4236 65.7301 49.5472 68.5482 48.7993C69.7632 48.4781 72.5802 49.5001 75.5045 51.3245C78.207 53.0118 81.1694 54.3916 82.0864 54.3916C84.1628 54.3916 87.184 49.8809 86.7229 47.4687C86.1938 44.7029 84.0009 44.5616 83.6223 47.2699C83.1643 50.5504 79.287 50.5985 78.829 47.3306C78.4845 44.8681 77.1528 44.2384 76.0646 46.023C75.1156 47.5796 73.4859 47.2877 73.4859 45.5617C73.4859 43.4559 71.4714 42.4172 70.0954 43.8127C68.5121 45.4184 67.297 45.2698 67.297 43.4695C67.297 41.0468 65.4279 40.5625 64.3036 42.6934ZM32.7886 50.0598C31.5229 54.1039 33.1444 55.5831 38.0265 54.8403C41.0611 54.379 42.5413 54.5359 42.5413 55.3184C42.5413 57.2045 46.5001 60.668 48.657 60.668C50.7096 60.668 53.8876 58.0989 53.8876 56.4398C53.8876 55.923 52.1795 55.604 50.0918 55.7305C46.8189 55.9293 46.2041 55.5998 45.6337 53.3455C45.152 51.4417 44.3608 50.7983 42.7249 50.9793C41.4892 51.1163 40.4783 50.7084 40.4783 50.0734C40.4783 49.4039 39.3911 49.1277 37.8996 49.4175C36.4813 49.6926 35.3209 49.5117 35.3209 49.0158C35.3209 47.3201 33.3982 48.1131 32.7886 50.0598ZM68.0438 65.4004C71.7241 67.6882 72.9887 71.3087 71.9603 76.6206C70.4286 84.5362 67.9674 86.3428 63.2639 83.0017C60.9729 81.375 60.8656 80.8112 61.3845 73.132C61.9229 65.1672 62.6728 62.303 64.0395 62.9913C64.4129 63.1796 66.2149 64.2644 68.0438 65.4004ZM34.0883 70.9342C36.7928 70.6151 36.8764 70.7689 37.1776 76.6164C37.4468 81.8635 37.158 82.9588 34.9031 85.2465C29.5363 90.6892 26.0375 87.6337 26.0375 77.5045C26.0375 69.5942 26.4676 68.637 29.3238 70.1873C30.4151 70.7794 32.5586 71.1151 34.0883 70.9342Z" fill="black"/>
</svg>
