<svg width="438" height="384" viewBox="0 0 438 384" fill="none" xmlns="http://www.w3.org/2000/svg">
<path fill-rule="evenodd" clip-rule="evenodd" d="M259.85 2.87926C258.341 5.03753 257.677 5.28066 256.442 4.12583C253.775 1.63155 251.709 2.38844 252.53 5.55933C253.2 8.1442 252.921 8.42632 249.694 8.42632C247.725 8.42632 245.934 8.94811 245.714 9.58687C245.448 10.361 241.982 10.3117 235.277 9.43779C220.774 7.54558 187.955 8.79673 173.544 11.7899C122.026 22.4929 76.4312 53.5631 49.0236 96.6436L43.753 104.928L41.3958 99.7652C37.9144 92.1378 31.1184 88.1286 21.6717 88.1286C13.3196 88.1286 8.05252 90.858 3.22327 97.6895C0.960707 100.889 0.371399 103.198 0.371399 108.867C0.371399 115.144 0.817521 116.549 4.03742 120.419C7.58155 124.679 18.0802 133.795 25.0726 138.683L28.4724 141.06L26.0288 151.292C17.3264 187.719 20.6682 228.734 35.0992 262.6L38.5865 270.786L35.298 273.142C30.8261 276.345 25.8122 286.428 25.8205 292.196C25.8359 303.015 32.1171 312.8 41.7886 317.068C47.8652 319.75 58.6786 319.842 64.2664 317.26L68.4827 315.311L78.211 324.627C104.219 349.529 136.637 366.318 174.448 374.468C184.49 376.632 189.78 376.994 211.599 377.015C233.687 377.034 238.68 376.693 249.467 374.43C279.152 368.201 304.708 356.85 329.441 338.908L333.089 336.262L337.462 338.762C348.29 344.954 362.016 340.033 367.153 328.116C369.708 322.191 369.446 318.187 366.086 311.753L363.186 306.203L370.336 295.844C383.778 276.368 393.351 254.549 398.441 231.784C401.089 219.934 403.517 194.183 402.553 188.175C401.959 184.482 402.009 184.44 410.616 181.344C424.323 176.411 431.861 171.531 434.957 165.581C438.078 159.582 438.327 154.491 435.787 148.601C429.587 134.217 411.884 130.503 400.886 141.278L396.609 145.468L393.332 135.721C391.529 130.359 388.169 121.975 385.864 117.088L381.675 108.203L385.093 105.696C386.972 104.318 392.058 99.8007 396.395 95.6585C405.393 87.0644 407.032 82.7054 404.597 73.8384C400.765 59.8842 383.751 53.7144 371.199 61.7271C366.984 64.4175 361.885 72.5127 361.885 76.515C361.885 77.7478 359.342 75.6056 355.232 70.9118C342.22 56.047 317.872 37.6237 299.194 28.509C287.232 22.6707 276.753 18.7933 274.851 19.5009C272.86 20.2418 272.614 21.7418 274.317 22.7613C276.497 24.0675 275.53 25.6283 272.542 25.6283C270.223 25.6283 269.613 26.1856 269.721 28.2085C269.824 30.1501 269.992 30.2923 270.399 28.7819C270.764 27.4253 272.106 26.7751 274.539 26.7751C278.087 26.7751 278.112 26.7338 276.241 23.9677C275.17 22.384 274.823 20.8725 275.446 20.4998C277.065 19.5307 298.996 29.1673 309.561 35.4907C327.761 46.3864 346.921 62.2248 345.684 65.351C345.319 66.2719 343.435 68.5609 341.498 70.4382C338.53 73.3143 338.217 74.1308 339.501 75.6297C340.753 77.0919 340.721 77.5953 339.325 78.4508C338.391 79.0242 337.001 79.5001 336.239 79.5105C335.476 79.5196 334.237 81.3316 333.487 83.5357C332.275 87.0942 331.922 87.3522 330.352 85.8293C327.969 83.5197 327.828 83.6206 328.329 87.2685C328.568 89.0025 328.42 89.6481 328.003 88.702C326.932 86.2766 323.198 82.968 321.529 82.968C320.514 82.968 320.309 85.3075 320.786 91.4257L321.446 99.8833L317.702 99.0117C315.644 98.5324 313.027 97.7674 311.888 97.3122C309.363 96.303 309.208 97.6161 311.555 100.129C313.109 101.794 312.924 102.123 309.78 103.273C307.84 103.983 306.267 104.089 306.267 103.511C306.267 101.512 304.046 102.484 299.843 106.326C296.528 109.356 295.617 109.754 295.617 108.169C295.617 106.442 293.448 104.757 291.223 104.757C290.866 104.757 290.877 106.563 291.246 108.771C291.763 111.86 291.511 112.785 290.148 112.785C289.174 112.785 288.69 112.295 289.072 111.695C289.454 111.097 288.154 109.452 286.184 108.039C284.116 106.559 282.6 104.423 282.6 102.992C282.6 99.5071 280.283 93.2881 277.587 89.5358C272.685 82.718 258.645 79.5116 250.887 83.4394C246.597 85.6114 241.617 90.8419 240.076 94.7972C237.902 100.373 238.338 104.211 242.971 120.239C243.459 121.926 242.673 123.139 240.006 124.826C236.658 126.943 236.404 127.562 236.71 132.854C237.002 137.914 237.373 138.634 239.866 138.974C241.42 139.187 243.121 138.686 243.648 137.861C244.173 137.036 245.024 136.768 245.539 137.265C246.053 137.764 245.222 139.085 243.693 140.203C241.396 141.882 241.055 142.867 241.733 145.859C242.441 148.981 242.228 149.482 240.193 149.482C238.893 149.482 236.738 150.902 235.402 152.636C233.055 155.686 232.973 155.705 232.938 153.209C232.916 151.79 232.5 150.626 232.012 150.621C230.426 150.607 225.558 142.761 226.358 141.507C227.627 139.518 223.746 136.616 220.962 137.473C219.134 138.035 218.657 138.88 219.146 140.691C219.619 142.444 218.925 143.829 216.717 145.535C214.788 147.025 213.467 149.342 213.2 151.696C212.793 155.296 212.921 155.431 216.02 154.677C219.615 153.803 221.021 152.251 221.048 149.128C221.058 147.987 221.579 147.359 222.205 147.734C222.93 148.17 222.918 149.498 222.171 151.402C221.527 153.044 221.277 154.655 221.614 154.983C221.952 155.31 221.635 156.271 220.911 157.118C219.325 158.97 220.73 159.077 227.27 157.605C229.861 157.022 231.429 157.034 231.047 157.632C230.687 158.196 229.462 158.657 228.322 158.657C227.184 158.657 225.219 159.394 223.955 160.296C221.698 161.908 221.704 161.979 224.32 164.355C225.785 165.685 226.983 167.759 226.983 168.963C226.983 170.794 225.97 171.208 220.772 171.498L214.56 171.845L214.255 178.544C213.987 184.42 214.242 185.317 216.324 185.845C219.572 186.668 219.307 189.841 215.741 192.846C214.114 194.218 212.783 196.362 212.783 197.613C212.783 198.864 211.422 200.753 209.757 201.809C208.093 202.866 205.141 205.972 203.194 208.713C200.381 212.676 199.805 214.458 200.378 217.426C200.773 219.478 200.621 222.4 200.04 223.92C198.281 228.516 199.67 231.483 207.008 238.795L214.023 245.784L221.233 245.269C225.2 244.986 230.289 244.165 232.545 243.444C236.217 242.269 236.827 242.385 238.393 244.55C239.681 246.333 240.9 246.784 243.029 246.267C245.709 245.615 246.143 246.023 246.209 249.253C246.215 249.569 245.886 251.206 245.476 252.892C244.915 255.21 245.496 256.837 247.858 259.557C252.013 264.342 253.582 272.39 251.224 276.811C248.873 281.216 249.009 284.027 251.833 289.391C253.135 291.864 254.2 295.076 254.2 296.53C254.2 297.984 255.278 301.122 256.595 303.505C257.913 305.887 259.182 309.424 259.415 311.364C259.893 315.344 261.931 317.036 265.432 316.359C266.739 316.107 269.744 315.6 272.11 315.233C275.258 314.745 277.878 313.049 281.873 308.909C284.876 305.797 287.334 302.232 287.334 300.985C287.334 299.727 288.386 298.397 289.7 297.992C291.532 297.429 292.067 296.257 292.067 292.808C292.067 289.304 292.724 287.911 295.138 286.292C303.057 280.978 304.376 277.373 301.361 269.29C299.273 263.694 300.848 260.406 309.681 251.919C318.032 243.896 321.651 238.585 321.651 234.35C321.651 232.21 321.167 232.026 317.213 232.673C314.773 233.072 311.888 233.633 310.804 233.918C309.72 234.204 308.528 233.959 308.154 233.374C307.781 232.788 310.531 231.134 314.267 229.699C318.003 228.264 321.731 226.589 322.551 225.979C323.373 225.368 325.769 223.976 327.876 222.883C334.377 219.516 338.013 210.262 332.836 210.262C331.967 210.262 330.944 209.77 330.56 209.171C330.145 208.518 333.167 208.088 338.069 208.103C346.073 208.127 346.378 208.237 350.539 212.596C352.943 215.115 355.511 216.801 356.425 216.461C357.543 216.046 358.299 217.173 358.866 220.101C359.317 222.433 361.566 227.916 363.863 232.284C367.892 239.944 368.12 240.156 370.288 238.255C372.45 236.358 372.535 236.42 372.535 239.901C372.535 242.386 373.103 243.519 374.347 243.519C377.113 243.519 377.75 240.389 375.624 237.243C372.068 231.984 373.17 227.495 379.61 221.007C387.472 213.086 390.376 212.468 394.587 217.817C397.196 221.133 397.816 223.096 397.743 227.814C397.692 231.043 397.088 233.868 396.402 234.089C395.714 234.312 395.409 235.143 395.723 235.937C396.506 237.914 389.031 259.686 383.805 270.646C378.606 281.552 370.536 294.402 362.866 303.989C356.921 311.42 356.419 312.327 358.255 312.327C358.863 312.327 359.697 311.295 360.11 310.034C361.021 307.252 362.55 307.07 363.562 309.624C364.511 312.022 364.267 312.219 359.774 312.697C356.929 312.998 353.058 315.894 343.274 325.037C318.839 347.873 290.345 363.311 258.075 371.197C224.274 379.457 185.173 378 151.84 367.235C139.311 363.189 118.926 354.063 119.56 352.783C119.802 352.293 120.735 350.466 121.632 348.724C123.098 345.879 123.032 345.378 120.984 343.779C119.366 342.514 119.135 341.827 120.186 341.403C121 341.075 121.665 339.92 121.665 338.838C121.665 337.754 122.326 336.228 123.134 335.444C124.304 334.311 124.244 333.801 122.839 332.94C121.361 332.034 121.428 331.855 123.255 331.84C124.455 331.831 125.688 330.92 125.996 329.816C126.302 328.713 128.25 327.035 130.322 326.089C133.321 324.72 134.045 323.73 133.871 321.24C133.75 319.519 134.017 318.161 134.463 318.222C137.184 318.594 138.658 317.327 142.954 310.918C145.589 306.99 147.455 303.045 147.101 302.152C146.153 299.758 149.823 296.423 154.846 295.113C159.814 293.817 161.365 291.246 162.915 281.739C163.52 278.032 165.052 274.481 167.031 272.203C168.764 270.207 170.182 267.881 170.182 267.035C170.182 264.541 168.835 261.868 167.58 261.868C166.939 261.868 165.059 260.836 163.405 259.575C161.75 258.313 159.079 257.281 157.469 257.281C153.98 257.281 142.965 252.579 142.965 251.088C142.965 248.149 136.717 242.416 132.722 241.69C130.367 241.261 127.528 240.079 126.414 239.062C120.99 234.112 119.128 233.197 115.393 233.646C113.224 233.907 110.545 233.408 109.274 232.507C106.087 230.249 102.792 230.517 97.9978 233.425C93.6549 236.06 86.6258 236.9 84.0709 235.091C83.071 234.383 82.826 232.697 83.3396 230.047C84.1916 225.641 82.8083 224.071 78.0489 224.041C75.1224 224.023 75.1402 224.236 77.4181 216.283C78.0465 214.087 77.701 213.703 75.0881 213.703C73.1202 213.703 71.3227 214.731 70.0802 216.57C67.5241 220.351 63.1517 220.324 60.5743 216.512C58.8526 213.965 58.7827 212.784 60.0312 207.376C61.3695 201.585 61.7399 201.114 65.5231 200.426C67.7537 200.022 70.3665 199.983 71.3298 200.34C72.2919 200.698 73.8752 200.219 74.8479 199.276C77.9021 196.316 83.8354 198.638 85.4294 203.418C86.1631 205.618 87.55 207.395 88.531 207.395C89.9143 207.395 90.2504 206.075 90.0516 201.417C89.8031 195.552 89.8989 195.368 95.0808 191.761C97.9871 189.739 100.364 187.391 100.364 186.542C100.364 183.726 105.642 177.087 108.944 175.751C110.796 175.001 112.198 173.539 112.198 172.356C112.198 170.017 115.844 168.489 119.064 169.479C121.86 170.339 131.132 165.969 131.132 163.791C131.132 161.837 129.265 161.53 128.138 163.3C126.916 165.214 123.872 162.096 124.648 159.727C125.065 158.457 124.513 157.225 123.196 156.483C122.028 155.825 121.491 155.27 122.002 155.251C122.513 155.232 124.244 156.05 125.848 157.068C127.453 158.087 128.765 158.395 128.765 157.754C128.765 157.112 130.418 156.029 132.439 155.346L136.113 154.105L134.214 156.913C133.169 158.458 132.315 160.15 132.315 160.673C132.315 161.939 142.152 164.461 143.17 163.457C144.451 162.191 142.831 156.363 141.197 156.363C140.14 156.363 139.872 154.932 140.276 151.456C140.776 147.163 140.407 146.123 137.323 143.142C135.15 141.041 133.491 137.976 132.994 135.147C131.407 126.108 131.197 125.856 128.241 129.449C126.703 131.317 125.033 132.307 124.228 131.824C122.254 130.643 122.523 127.693 124.602 127.693C125.72 127.693 124.898 126.238 122.335 123.679C120.122 121.472 117.501 119.666 116.508 119.666C114.143 119.666 112.948 117.731 114.853 116.987C115.671 116.668 115.159 116.365 113.714 116.316C111.931 116.254 111.293 116.739 111.725 117.829C112.074 118.711 111.791 119.774 111.095 120.191C110.4 120.607 109.831 120.371 109.831 119.666C109.831 118.96 109.299 118.702 108.648 119.092C106.926 120.123 107.199 121.959 109.075 121.959C110.156 121.959 110.5 122.904 110.121 124.826C109.398 128.49 108.285 128.455 106.211 124.7C105.303 123.054 102.019 120.301 98.9137 118.582C93.404 115.534 92.72 113.932 96.9257 113.932C98.0723 113.932 100.057 115.222 101.336 116.799C103.699 119.709 106.281 120.607 106.281 118.519C106.281 117.888 105.451 117.372 104.436 117.372C103.422 117.372 102.922 116.854 103.325 116.221C103.729 115.588 105.358 115.386 106.945 115.772C110.228 116.57 110.584 115.483 108.145 112.108C106.24 109.473 106.862 108.004 110.719 106.036C112.184 105.288 113.381 103.98 113.381 103.128C113.381 100.239 116.343 96.1585 118.713 95.78C121.066 95.4062 121.066 95.4108 118.706 97.3076C116.74 98.889 116.69 99.1035 118.411 98.5794C120.646 97.8982 121.382 100.642 119.298 101.89C116.628 103.489 118.253 104.91 121.869 104.14L125.625 103.341L122.757 106.867C121.181 108.808 119.091 110.301 118.115 110.185C115.655 109.894 113.381 111.451 113.381 113.426C113.381 114.5 114.633 115.078 116.961 115.078C119.631 115.078 120.809 115.764 121.599 117.778C122.81 120.865 132.894 127.381 132.064 124.539C131.926 124.067 132.458 122.552 133.247 121.174C134.265 119.396 134.338 117.793 133.498 115.652C131.881 111.527 132.014 110.801 133.925 113.334C135.47 115.381 135.673 115.343 138.914 112.43L142.295 109.394L138.386 105.484C135.738 102.837 134.922 101.308 135.858 100.748C138.384 99.2342 136.024 93.686 130.836 88.9394C129.697 87.8981 128.765 86.1699 128.765 85.1011C128.765 81.2112 127.267 79.5747 123.029 78.8361C120.652 78.421 118.074 77.5976 117.303 77.0047C115.449 75.5827 112.1 77.374 108.184 81.8832C104.731 85.8603 104.202 89.9945 106.873 92.1424C107.849 92.928 108.648 94.2181 108.648 95.0094C108.648 95.8007 107.849 97.0908 106.873 97.8764C105.395 99.0656 105.098 98.9177 105.098 96.9922C105.098 95.7216 104.309 94.3878 103.343 94.0289C101.647 93.3982 101.648 91.9543 103.351 83.5414C103.607 82.28 104.993 80.7318 106.43 80.1011C109.41 78.7949 111.908 75.4244 110.739 74.2914C110.308 73.8728 108.463 73.4519 106.639 73.3545C104.815 73.257 102.702 72.7971 101.943 72.3304C100.202 71.2627 95.4417 72.9714 93.3472 75.4175C91.4775 77.5999 93.1401 84.8752 95.4027 84.4107C98.58 83.7605 93.9945 89.5931 90.1924 91.0392C87.4873 92.0679 86.6412 92.866 87.6281 93.4578C88.7901 94.1527 88.796 94.6378 87.6577 95.7411C86.5193 96.8443 85.5785 96.8133 83.2296 95.5954C81.5894 94.7445 80.2475 93.5943 80.2475 93.0381C80.2475 92.4658 81.0723 92.4761 82.1515 93.061C83.5195 93.803 84.8969 93.3397 87.0352 91.4188C89.7818 88.9509 89.8788 88.5403 88.2694 86.1424C86.8494 84.0254 86.7808 82.8075 87.905 79.5965C88.6647 77.4279 89.9143 75.4497 90.6835 75.2008C92.4124 74.6423 92.5165 71.8957 90.8456 70.8957C90.1664 70.4886 88.8244 70.7879 87.8624 71.562C85.4767 73.4806 80.6013 73.8717 79.2275 72.2535C77.3696 70.0666 77.0974 63.1904 78.8464 62.6055C79.7067 62.3177 80.6889 63.1388 81.0392 64.4404C81.6143 66.5677 82.4379 66.7615 89.5404 66.4335C96.0512 66.1331 97.3457 65.7478 97.0582 64.1984C96.4547 60.9473 98.6025 62.1709 100.057 65.9072C100.989 68.2994 102.025 69.2753 103.177 68.8464C104.125 68.4932 105.196 68.9462 105.555 69.8521C106.672 72.6744 109.831 71.7742 109.831 68.6331C109.831 67.0563 109.263 65.7661 108.569 65.7661C107.874 65.7661 107.62 64.8074 108.003 63.6342C108.957 60.7214 105.721 58.1032 103.438 59.9392C102.163 60.9645 101.635 60.9312 101.161 59.7936C100.666 58.6055 100.321 58.6227 99.4119 59.8785C98.1279 61.6548 95.0394 60.3452 95.0394 58.0252C95.0394 55.6399 92.7591 56.1112 91.3485 58.789C90.1368 61.0883 89.9605 61.1262 89.2765 59.234C88.8659 58.0963 88.1949 56.4484 87.7855 55.5722C87.3535 54.6479 87.5452 54.2809 88.2434 54.6995C88.9037 55.0952 89.7546 54.2718 90.1332 52.8692C90.8137 50.3486 90.8421 50.3451 92.5709 52.5952C94.2821 54.8222 94.4051 54.789 98.2297 51.1112C101.36 48.0997 101.805 47.1479 100.462 46.3371C99.2072 45.5791 101.299 43.7396 108.745 39.0538C138.293 20.4551 168.756 11.1454 204.078 9.92174C221.196 9.3277 242.487 10.6637 247.88 12.6683C250.392 13.603 249.733 15.1993 246.508 15.9826C242.748 16.8977 242.758 18.0296 246.543 19.7005C249.431 20.9757 249.467 21.1213 247.59 23.8989C245.651 26.7647 245.657 26.7751 249.469 26.7751C252.909 26.7751 253.236 27.0617 252.727 29.642C252.156 32.5331 254.452 33.7499 255.975 31.3622C257.202 29.4379 258.778 30.0698 260.447 33.1547L262.036 36.0939L263.417 33.1547C264.994 29.8014 266.296 29.4792 268.39 31.923C269.194 32.8622 270.363 33.3244 270.989 32.9494C272.059 32.3083 266.888 29.0686 264.794 29.0686C264.262 29.0686 263.457 30.1959 263.006 31.5732C262.205 34.0171 262.144 33.9999 260.469 30.9012C258.821 27.8542 258.66 27.806 256.476 29.7212C254.284 31.6432 254.2 31.6042 254.2 28.673C254.2 26.1902 253.654 25.6283 251.242 25.6283C248.06 25.6283 247.495 24.5571 249.6 22.517C251.257 20.9115 249.965 18.7555 247.326 18.7222C245.769 18.7016 245.98 18.2073 248.283 16.4906C250.651 14.7245 250.947 13.9974 249.762 12.8461C247.505 10.6511 247.992 9.38962 250.946 9.78756C252.947 10.0571 253.702 9.50545 253.987 7.56622C254.404 4.71758 255.416 4.32996 257.403 6.25543C258.362 7.18434 259.1 6.82654 260.152 4.92171L261.59 2.31734L263.642 4.95496C265.005 6.70498 265.974 7.15337 266.526 6.28869C267.864 4.18891 269.389 4.78524 269.797 7.56622C270.082 9.50545 270.837 10.0571 272.838 9.78756C275.791 9.38962 276.279 10.6511 274.021 12.8461C272.837 13.9974 273.132 14.7245 275.5 16.4906C278.805 18.955 280.234 19.2968 280.234 17.6225C280.234 17.0043 278.902 16.1741 277.275 15.7784C273.884 14.9527 273.565 13.8988 276.092 11.8667C278.866 9.63619 278.196 8.42632 274.189 8.42632C270.856 8.42632 270.58 8.15682 271.253 5.55933C272.072 2.39417 269.985 1.61894 267.39 4.12583C266.202 5.27377 265.489 5.02492 263.816 2.87926L261.726 0.199203L259.85 2.87926ZM337.666 2.56848C337.205 3.98019 335.675 5.59029 334.268 6.14878L331.709 7.16255L334.237 7.89421C335.627 8.29673 337.328 9.74169 338.018 11.1064L339.271 13.5869L340.037 11.1121C340.458 9.75202 341.952 8.30246 343.356 7.89191C345.736 7.19695 345.76 7.088 343.711 6.29442C342.502 5.82538 340.835 4.21758 340.009 2.72215L338.508 0.00195312L337.666 2.56848ZM83.7976 11.4011C83.7976 12.4057 82.7326 13.4986 81.4309 13.8277C78.6133 14.5422 78.263 16.4539 80.9504 16.4539C81.987 16.4539 83.1148 17.486 83.4544 18.7475C83.7952 20.009 84.5076 21.0411 85.0389 21.0411C85.5702 21.0411 86.343 20.009 86.7559 18.7475C87.1689 17.486 88.2695 16.4539 89.2019 16.4539C90.1344 16.4539 90.8977 15.9378 90.8977 15.3071C90.8977 14.6764 90.1344 14.1603 89.2019 14.1603C88.2695 14.1603 87.1689 13.1282 86.7559 11.8667C85.8602 9.13274 83.7976 8.80705 83.7976 11.4011ZM144.205 33.5228C143.26 34.1432 142.062 34.3967 141.543 34.0859C141.023 33.7751 139.933 33.923 139.119 34.4162C138.306 34.9081 136.932 35.415 136.068 35.5423C132.255 36.1019 131.12 37.2648 130.954 40.7878C130.791 44.2568 130.739 44.3038 130.284 41.3967C129.686 37.5698 127.631 37.3703 124.385 40.8233C120.952 44.4758 119.73 47.3417 119.452 52.3876C119.259 55.9083 119.674 56.9014 121.539 57.3739C124.094 58.0218 123.719 60.6101 120.92 61.6503C119.961 62.0069 119.478 61.8246 119.847 61.2454C120.218 60.6652 119.979 59.867 119.317 59.4702C118.656 59.0746 118.115 59.5551 118.115 60.5379C118.115 62.8074 115.308 62.8544 113.392 60.6181C112.587 59.6789 111.457 59.1938 110.881 59.539C109.41 60.4197 109.566 64.6193 111.068 64.6193C111.835 64.6193 112.017 66.1079 111.547 68.5345C110.657 73.1308 112.502 74.5529 120.775 75.6526C124.663 76.1687 126.279 75.8877 127.476 74.4898C129.759 71.8246 127.134 69.2065 122.182 69.2065C120.021 69.2065 117.917 68.6778 117.505 68.0322C116.401 66.3005 126.711 67.9989 128.212 69.796C129.196 70.9714 129.835 70.976 131.466 69.82C132.585 69.0276 133.498 67.7547 133.498 66.9909C133.498 65.312 136.42 62.3257 138.061 62.3257C138.711 62.3257 140.363 60.9461 141.731 59.2603C143.099 57.5757 145.203 55.6399 146.406 54.9599C147.609 54.281 149.591 53.1319 150.808 52.4059C152.763 51.2431 153.053 51.4782 153.272 54.4128C153.482 57.2236 153.082 57.7385 150.686 57.7385C145.397 57.7385 141.459 59.859 142.13 62.3464C142.468 63.5964 142.278 64.6193 141.708 64.6193C141.139 64.6193 140.878 65.265 141.129 66.0528C141.379 66.8418 141.905 68.9049 142.298 70.64C142.885 73.2386 143.644 73.7937 146.616 73.7937C153.9 73.7937 154.615 74.9531 154.194 86.1034C153.984 91.6321 153.442 97.3122 152.988 98.725C152.335 100.755 152.749 101.522 154.96 102.38C156.659 103.039 157.022 103.493 155.886 103.538C152.149 103.683 150.776 108.626 152.185 116.867C153.406 124.01 156.576 130.941 157.992 129.567C158.343 129.228 159.438 129.732 160.425 130.689C161.516 131.747 162.647 132.014 163.308 131.373C164.643 130.08 168.396 123.602 170.183 119.508C171.072 117.473 172.723 116.249 175.237 115.762C177.292 115.363 180.322 113.843 181.973 112.383C183.624 110.923 187.164 109.126 189.841 108.391C197.089 106.398 200.86 102.216 200.623 96.4349C200.507 93.6103 201.005 91.5507 201.872 91.2709C202.666 91.014 203.316 90.0736 203.316 89.1803C203.316 88.2858 203.905 87.5552 204.626 87.5552C205.347 87.5552 205.619 86.7548 205.231 85.7754C204.844 84.796 205.018 84.2903 205.618 84.6493C206.674 85.2823 207.06 82.0552 206.905 73.8487C206.813 68.9932 210.311 61.5539 214.438 57.8257C216.132 56.2959 217.516 54.6319 217.516 54.1273C217.516 52.6777 211.223 50.0688 208.937 50.5711C207.797 50.8211 206.866 50.4724 206.866 49.7947C206.866 49.1181 207.398 48.5642 208.049 48.5642C210.298 48.5642 209.217 46.3669 205.034 42.4288C200.584 38.2407 193.308 36.0148 191.092 38.1627C190.395 38.8382 188.673 39.3898 187.264 39.3898C185.854 39.3898 183.432 40.3451 181.88 41.5125C180.327 42.68 178.392 43.4105 177.578 43.1364C176.765 42.8634 176.099 43.2614 176.099 44.0217C176.099 45.0836 175.688 45.0745 174.331 43.9827C173.358 43.2006 171.253 42.8027 169.653 43.0997C167.263 43.5424 166.62 43.094 166.052 40.5894C165.663 38.8726 163.812 36.6535 161.817 35.5113C157.665 33.1352 146.683 31.8944 144.205 33.5228ZM116.931 44.618C116.931 45.6008 117.464 46.0871 118.115 45.6972C118.766 45.3073 119.298 44.5034 119.298 43.9093C119.298 43.3153 118.766 42.8302 118.115 42.8302C117.464 42.8302 116.931 43.6352 116.931 44.618ZM106.013 48.1043C104.887 50.4988 104.868 51.3566 105.933 51.7007C106.702 51.9495 107.065 52.8268 106.738 53.6514C105.969 55.5929 109.483 56.9197 110.63 55.1193C111.196 54.2328 111.751 54.7546 112.199 56.5975C112.581 58.164 113.88 59.6308 115.085 59.8555C116.621 60.1422 117.076 59.7569 116.605 58.5677C116.236 57.6353 116.473 56.3475 117.134 55.7076C117.946 54.9209 117.884 53.7305 116.946 52.0298C116.181 50.6468 115.247 49.8142 114.87 50.1789C114.492 50.5447 113.591 49.6903 112.865 48.2809C110.91 44.4804 107.754 44.4002 106.013 48.1043ZM289.014 47.7041C288.25 50.0332 287.954 51.7144 287.485 56.3727C287.401 57.1984 286.793 57.5493 286.132 57.1537C285.47 56.7569 285.232 55.9564 285.604 55.375C285.975 54.7924 285.734 53.4094 285.068 52.3004C284.398 51.1869 283.839 50.9266 283.819 51.7179C283.8 52.5069 282.751 53.1514 281.487 53.1514C280.223 53.1514 278.839 53.7018 278.41 54.375C277.123 56.3933 281.686 58.7993 285.559 58.1434C287.511 57.8119 290.871 57.5195 293.023 57.4931C295.841 57.4576 296.763 57.0034 296.314 55.8716C295.972 55.0057 296.074 54.2936 296.541 54.289C298.035 54.2741 300.212 48.6169 299.004 47.8933C297.469 46.9736 294.446 49.5676 294.381 51.8578C294.351 52.8853 293.627 52.1766 292.77 50.2844C291.913 48.3922 291.436 46.4564 291.71 45.9839C291.983 45.5114 291.679 45.1238 291.033 45.1238C290.388 45.1238 289.479 46.2855 289.014 47.7041ZM294.828 45.8887C295.262 46.3084 295.972 46.3084 296.406 45.8887C296.84 45.4678 296.485 45.1238 295.617 45.1238C294.75 45.1238 294.395 45.4678 294.828 45.8887ZM161.899 47.4174C161.899 48.0481 161.334 48.5642 160.645 48.5642C159.957 48.5642 159.721 48.0481 160.124 47.4174C160.526 46.7866 161.089 46.2706 161.377 46.2706C161.664 46.2706 161.899 46.7866 161.899 47.4174ZM101.054 54.1445C100.544 54.9438 100.447 55.9071 100.838 56.2855C101.897 57.3119 103.052 55.8027 102.479 54.1399C102.079 52.9747 101.8 52.9747 101.054 54.1445ZM247.76 60.6984C246.498 61.5929 244.501 62.3257 243.324 62.3257C242.146 62.3257 241.122 62.9714 241.047 63.7592C240.725 67.1457 241.469 69.8671 243.045 71.0528C243.973 71.7535 244.733 72.8246 244.733 73.4336C244.733 74.0425 246.01 75.7031 247.572 77.1251L250.41 79.7089L251.226 75.0265C251.676 72.4508 252.537 70.64 253.141 71.0012C253.744 71.3625 253.93 72.1423 253.553 72.734C252.52 74.3545 256.526 75.4382 258.059 73.9531C259.047 72.9955 258.491 71.7432 255.908 69.1113C253.759 66.9209 253.104 65.6526 254.2 65.7994C257.565 66.2512 258.558 65.7569 259.865 62.9771C261.059 60.437 260.891 60.1411 257.984 59.6583C252.57 58.7603 250.148 59.0069 247.76 60.6984ZM309.788 69.6469C301.833 76.968 299.665 79.4611 299.603 81.3556C299.564 82.5575 299.222 85.9899 298.843 88.9807C298.248 93.6757 298.502 94.6573 300.699 96.1482C303.262 97.889 308.634 98.5369 308.634 97.1069C308.634 96.6837 307.749 95.389 306.667 94.2307C302.724 90.0082 305.959 78.8361 312.389 74.4714C314.782 72.8476 315 69.1595 312.746 68.4324C312.08 68.2168 310.749 68.7638 309.788 69.6469ZM388.563 74.3155C392.108 77.749 392.194 79.4715 389.015 83.3866C386.069 87.0185 381.754 87.3156 378.452 84.1148C375.149 80.9141 375.455 76.7329 379.203 73.8774C383.243 70.7971 385.021 70.8808 388.563 74.3155ZM102.731 75.5139C102.731 75.8292 102.465 76.0873 102.139 76.0873C101.814 76.0873 101.548 75.8292 101.548 75.5139C101.548 75.1985 101.814 74.9405 102.139 74.9405C102.465 74.9405 102.731 75.1985 102.731 75.5139ZM66.4792 78.6676C66.1254 82.491 64.7125 86.4084 63.6877 86.4084C63.1919 86.4084 62.1506 85.6653 61.3719 84.7559C60.2442 83.4394 60.4998 82.3912 62.6334 79.5953C65.8177 75.421 66.8011 75.1836 66.4792 78.6676ZM71.9641 82.3947C71.9641 82.71 71.6978 82.968 71.3724 82.968C71.047 82.968 70.7807 82.71 70.7807 82.3947C70.7807 82.0793 71.047 81.8213 71.3724 81.8213C71.6978 81.8213 71.9641 82.0793 71.9641 82.3947ZM269.502 84.647C274.16 86.9818 278.727 92.553 280.39 97.928C282.271 104.016 280.512 109.481 273.883 118.124C268.097 125.669 254.426 140.308 253.165 140.308C251.993 140.308 244.118 120.52 241.753 111.638C238.31 98.6975 241.486 89.3752 250.863 84.897C255.767 82.5541 265.076 82.4302 269.502 84.647ZM335.851 84.6882C335.851 85.0036 335.585 85.2616 335.259 85.2616C334.934 85.2616 334.668 85.0036 334.668 84.6882C334.668 84.3729 334.934 84.1148 335.259 84.1148C335.585 84.1148 335.851 84.3729 335.851 84.6882ZM366.618 84.6882C366.618 85.0036 366.352 85.2616 366.027 85.2616C365.701 85.2616 365.435 85.0036 365.435 84.6882C365.435 84.3729 365.701 84.1148 366.027 84.1148C366.352 84.1148 366.618 84.3729 366.618 84.6882ZM371.715 92.0541C374.873 97.2686 373.363 96.3374 369.533 90.7089C367.708 88.0277 366.972 86.4406 367.896 87.1802C368.82 87.9199 370.539 90.1137 371.715 92.0541ZM72.6528 92.1424C73.5758 92.1424 74.3308 92.5553 74.3308 93.0587C74.3308 93.5633 72.4717 93.7651 70.1985 93.5082C67.9253 93.2514 66.3822 92.5449 66.768 91.9394C67.1538 91.3351 68.259 91.1321 69.2223 91.491C70.1855 91.8488 71.7298 92.1424 72.6528 92.1424ZM330.724 95.2009C330.289 95.6207 329.934 95.2766 329.934 94.436C329.934 93.5954 330.289 93.2514 330.724 93.6711C331.157 94.092 331.157 94.7801 330.724 95.2009ZM254.406 97.0897C249.119 102.545 252.747 110.491 260.525 110.491C265.451 110.491 268.794 107.168 268.794 102.27C268.794 95.1849 259.498 91.8385 254.406 97.0897ZM264.161 96.2789C266.388 97.1069 266.656 99.0071 264.554 99.0622C263.741 99.084 260.945 100.083 258.342 101.281C254.264 103.16 253.553 103.223 253.208 101.731C252.258 97.6115 258.88 94.3144 264.161 96.2789ZM376.085 99.0232C376.782 100.285 377.085 101.317 376.76 101.317C376.434 101.317 375.599 100.285 374.902 99.0232C374.205 97.7617 373.902 96.7296 374.227 96.7296C374.553 96.7296 375.388 97.7617 376.085 99.0232ZM324.018 100.743C324.018 101.059 323.751 101.317 323.426 101.317C323.101 101.317 322.834 101.059 322.834 100.743C322.834 100.428 323.101 100.17 323.426 100.17C323.751 100.17 324.018 100.428 324.018 100.743ZM26.2453 103.694C28.0594 105.076 29.3635 107.216 29.3635 108.81C29.3635 112.001 25.1614 116.225 21.9865 116.225C19.2979 116.225 13.9799 111.274 13.9799 108.771C13.9799 106.512 19.1926 101.317 21.4587 101.317C22.377 101.317 24.5307 102.387 26.2453 103.694ZM296.801 103.61C296.801 104.872 297.276 105.904 297.857 105.904C299.187 105.904 300.429 102.921 299.48 102.003C298.056 100.622 296.801 101.375 296.801 103.61ZM334.668 106.477C334.668 106.793 334.402 107.051 334.076 107.051C333.751 107.051 333.484 106.793 333.484 106.477C333.484 106.162 333.751 105.904 334.076 105.904C334.402 105.904 334.668 106.162 334.668 106.477ZM39.6196 115.843C39.1853 116.263 38.8303 115.919 38.8303 115.078C38.8303 114.238 39.1853 113.894 39.6196 114.313C40.0527 114.734 40.0527 115.422 39.6196 115.843ZM194.294 115.309C193.953 115.843 194.014 117.784 194.43 119.618C195.389 123.85 200.34 125.21 205.453 122.647C209.365 120.687 210.668 118.476 209.236 116.23C208.153 114.532 195.295 113.739 194.294 115.309ZM286.94 116.571C286.94 117.56 285.804 117.904 283.586 117.589C281.742 117.326 280.234 116.654 280.234 116.096C280.234 115.536 281.742 115.078 283.586 115.078C285.552 115.078 286.94 115.696 286.94 116.571ZM97.9978 119.147C101.364 120.794 105.358 124.794 107.317 128.478C108.964 131.577 109.024 139.174 107.467 147.319C105.795 156.06 100.175 173.565 99.0391 173.565C97.5173 173.565 75.4703 152.792 71.7759 147.877C63.5741 136.965 70.1879 120.411 83.9431 117.42C88.5322 116.421 93.7342 117.061 97.9978 119.147ZM38.8303 117.945C38.8303 118.261 38.564 118.519 38.2386 118.519C37.9132 118.519 37.6469 118.261 37.6469 117.945C37.6469 117.63 37.9132 117.372 38.2386 117.372C38.564 117.372 38.8303 117.63 38.8303 117.945ZM282.6 119.092C282.6 119.407 282.334 119.666 282.009 119.666C281.683 119.666 281.417 119.407 281.417 119.092C281.417 118.777 281.683 118.519 282.009 118.519C282.334 118.519 282.6 118.777 282.6 119.092ZM36.6079 122.733C35.2128 125.058 34.8767 124.313 36.0186 121.43C36.4233 120.405 37.0055 119.808 37.3097 120.104C37.615 120.398 37.299 121.582 36.6079 122.733ZM35.2802 125.973C35.2802 126.288 35.014 126.546 34.6885 126.546C34.3631 126.546 34.0969 126.288 34.0969 125.973C34.0969 125.658 34.3631 125.399 34.6885 125.399C35.014 125.399 35.2802 125.658 35.2802 125.973ZM33.7028 129.605C33.2685 130.025 32.9135 129.68 32.9135 128.84C32.9135 127.999 33.2685 127.655 33.7028 128.075C34.1359 128.496 34.1359 129.184 33.7028 129.605ZM82.6142 131.133C81.2995 132.408 80.2475 134.956 80.2475 136.867C80.2475 138.779 81.2995 141.327 82.6142 142.601C87.7358 147.565 96.8144 143.9 96.8144 136.867C96.8144 132.453 93.0857 128.84 88.531 128.84C86.5583 128.84 83.9289 129.859 82.6142 131.133ZM93.772 131.788C94.7944 132.78 95.6311 134.897 95.6311 136.495V139.398L91.4479 135.84C89.1475 133.882 86.7512 132.28 86.1228 132.28C85.4945 132.28 84.9809 131.764 84.9809 131.133C84.9809 129.304 91.7272 129.808 93.772 131.788ZM32.5195 133.045C32.0852 133.465 31.7302 133.121 31.7302 132.28C31.7302 131.44 32.0852 131.096 32.5195 131.515C32.9526 131.936 32.9526 132.624 32.5195 133.045ZM271.63 132.973C271.237 133.354 270.215 133.395 269.362 133.064C268.418 132.698 268.698 132.426 270.077 132.371C271.324 132.322 272.022 132.592 271.63 132.973ZM264.995 135.434C263.628 136.538 262.069 139.505 261.531 142.028C260.81 145.405 260.03 146.527 258.572 146.281C257.484 146.098 255.516 146.506 254.198 147.19C252.469 148.087 251.231 148.079 249.747 147.158C247.907 146.018 247.952 145.936 250.168 146.382C252.617 146.874 256.254 143.256 255.577 141.002C254.996 139.068 261.724 133.427 264.611 133.427H267.479L264.995 135.434ZM425.514 138.876C432.736 142.077 437.2 150.869 435.893 159.315C434.779 166.51 429.506 171.961 419.277 176.488C409.601 180.771 391.585 186.674 390.725 185.843C389.798 184.942 393.582 158.745 395.583 152.221C399.951 137.975 411.683 132.744 425.514 138.876ZM266.033 138.588C266.033 138.903 265.767 139.161 265.442 139.161C265.116 139.161 264.85 138.903 264.85 138.588C264.85 138.272 265.116 138.014 265.442 138.014C265.767 138.014 266.033 138.272 266.033 138.588ZM256.567 140.308C256.567 140.939 257.099 141.455 257.75 141.455C258.401 141.455 258.933 140.939 258.933 140.308C258.933 139.677 258.401 139.161 257.75 139.161C257.099 139.161 256.567 139.677 256.567 140.308ZM248.283 142.737C248.283 143.367 247.751 143.565 247.1 143.175C246.449 142.785 245.917 141.95 245.917 141.319C245.917 140.689 246.449 140.491 247.1 140.881C247.751 141.271 248.283 142.106 248.283 142.737ZM409.265 150.846C404.19 156.124 408.308 164.391 416.014 164.391C419.977 164.391 424.602 160.067 424.602 156.363C424.602 155.271 423.498 153.019 422.149 151.357C418.981 147.454 412.763 147.207 409.265 150.846ZM421.104 151.263C423.381 153.921 422.997 159.869 420.432 161.686C415.46 165.209 408.035 162.021 408.035 156.363C408.035 155.382 408.865 153.433 409.878 152.032C412.078 148.987 418.764 148.529 421.104 151.263ZM315.112 166.305C312.887 168.461 312.904 168.618 315.734 172.105C317.036 173.709 318.117 175.855 318.139 176.873C318.159 177.892 318.958 179.728 319.914 180.951C320.869 182.176 321.651 183.595 321.651 184.105C321.651 185.565 317.59 185.189 315.219 183.509C313.492 182.285 313.321 181.525 314.356 179.653C315.418 177.728 315.139 176.863 312.751 174.689C308.386 170.714 307.864 167.831 311.085 165.475C314.447 163.018 317.793 163.706 315.112 166.305ZM291.475 165.537C291.073 166.168 290.11 166.676 289.335 166.667C288.488 166.655 288.634 166.205 289.7 165.537C291.974 164.113 292.383 164.113 291.475 165.537ZM284.204 168.385C284.678 169.583 285.894 169.887 288.322 169.417C291.051 168.888 292.596 169.467 295.76 172.208L299.754 175.667L288.844 175.412C282.843 175.273 277.613 174.847 277.221 174.467C276.091 173.372 280.122 166.684 281.913 166.684C282.803 166.684 283.833 167.449 284.204 168.385ZM253.228 170.426C254.088 171.223 256.257 172.783 258.046 173.893C259.835 175.003 261.3 176.474 261.3 177.164C261.3 178.572 255.938 175.533 252.721 172.301C249.633 169.2 250.089 167.519 253.228 170.426ZM249.854 176.191C255.977 181.641 256.509 182.739 253.017 182.739C249.964 182.739 249.977 184.603 253.04 186.192C255.091 187.255 255.722 186.938 257.478 183.957C260.124 179.464 262.285 178.705 263.131 181.971C263.5 183.396 264.886 185.219 266.21 186.02C268.253 187.258 268.853 187.164 270.186 185.399C271.256 183.981 271.376 182.878 270.567 181.933C269.297 180.45 270.181 178.152 272.02 178.152C272.633 178.152 273.134 179.404 273.134 180.935C273.134 184.68 278.409 188.673 282.152 187.762C284.243 187.254 284.967 187.552 284.967 188.923C284.967 189.937 285.766 190.767 286.742 190.767C287.718 190.767 288.517 189.993 288.517 189.047C288.517 188.101 289.05 187.326 289.7 187.326C291.201 187.326 291.19 188.426 289.65 192.708C288.523 195.839 287.933 196.146 282.88 196.22C279.835 196.265 275.015 195.535 272.17 194.599C266.435 192.712 263.667 193.173 263.667 196.016C263.667 197.493 262.971 197.727 260.424 197.107C258.641 196.674 256.865 195.822 256.478 195.214C256.09 194.607 254.23 193.71 252.343 193.221C249.695 192.534 248.855 191.601 248.658 189.123C248.519 187.359 248.112 185.631 247.755 185.286C247.399 184.94 242.978 185.271 237.932 186.02C226.856 187.666 219.367 188.543 223.433 187.718C227.283 186.937 230.533 184.071 230.533 181.455C230.533 180.314 231.598 178.828 232.9 178.152C234.201 177.477 235.266 176.168 235.266 175.245C235.266 174.272 236.388 173.558 237.929 173.548C239.394 173.537 241.39 173.029 242.366 172.418C243.343 171.807 244.183 171.299 244.233 171.289C244.282 171.279 246.812 173.486 249.854 176.191ZM242.964 176.978C242.164 180.511 242.874 182.739 244.803 182.739C245.416 182.739 245.917 180.675 245.917 178.152C245.917 172.783 244.081 172.052 242.964 176.978ZM159.828 190.43C156.744 193.57 156.564 194.207 158.759 194.207C159.636 194.207 160.835 195.187 161.422 196.383C162.424 198.423 162.697 198.352 165.819 195.236C167.987 193.071 168.554 191.914 167.443 191.914C166.504 191.914 165.007 190.97 164.114 189.816C162.56 187.809 162.376 187.836 159.828 190.43ZM26.3933 193.152C27.0512 195.309 28.0192 197.72 28.5458 198.508C29.0724 199.297 29.2179 200.388 28.87 200.934C28.5209 201.481 29.2889 202.852 30.5752 203.979C31.8615 205.108 32.9135 206.644 32.9135 207.395C32.9135 209.133 37.0162 212.785 37.9499 211.879C38.3368 211.506 37.6422 208.794 36.4056 205.856C35.169 202.918 34.8104 201.472 35.6068 202.642C36.4032 203.813 38.5368 206.614 40.3485 208.868C42.159 211.121 43.5625 213.776 43.4655 214.768C43.1033 218.502 43.7424 219.21 50.7383 222.823C55.4788 225.272 58.836 226.305 60.6311 225.869C62.4452 225.428 64.0226 225.93 65.3764 227.379C66.4923 228.574 68.8152 229.894 70.5381 230.314C72.2611 230.733 75.4786 232.878 77.6868 235.083C82.561 239.947 87.2956 241.985 88.7286 239.837C89.5132 238.661 89.9522 238.71 90.8799 240.079C92.8419 242.976 92.2195 247.042 89.3001 250.405C85.8885 254.335 84.194 263.851 86.5678 265.756C87.4411 266.455 89.6433 269.609 91.4621 272.763C95.392 279.579 99.0131 283.657 101.135 283.657C101.983 283.657 103.513 284.895 104.536 286.407C106.108 288.733 106.275 291.704 105.619 305.616C104.612 326.906 104.933 336.744 106.669 337.814C107.702 338.45 107.679 338.673 106.577 338.686C105.764 338.695 105.161 339.09 105.238 339.564C105.589 341.715 104.991 343.291 103.825 343.291C101.761 343.291 88.6671 333.078 78.5033 323.542L69.066 314.687L72.822 310.927C84.9277 298.805 81.9586 279.109 66.7206 270.454C59.985 266.63 51.6519 265.702 44.7932 268.015C41.8904 268.993 39.4681 269.688 39.4125 269.559C39.3557 269.429 38.6043 267.774 37.7416 265.882C33.8093 257.254 27.9588 238.537 25.7898 227.648C22.5852 211.555 21.222 187.946 23.5402 188.695C24.4526 188.989 25.7365 190.995 26.3933 193.152ZM270.175 189.62C270.578 190.251 271.673 190.767 272.612 190.767C273.55 190.767 274.317 190.251 274.317 189.62C274.317 188.989 273.22 188.473 271.88 188.473C270.541 188.473 269.773 188.989 270.175 189.62ZM32.5195 197.266C32.0852 197.685 31.7302 197.341 31.7302 196.501C31.7302 195.66 32.0852 195.316 32.5195 195.736C32.9526 196.157 32.9526 196.845 32.5195 197.266ZM34.0969 199.368C34.0969 199.683 33.8306 199.941 33.5052 199.941C33.1798 199.941 32.9135 199.683 32.9135 199.368C32.9135 199.052 33.1798 198.794 33.5052 198.794C33.8306 198.794 34.0969 199.052 34.0969 199.368ZM319.5 202.808C321.433 204.385 324.105 205.675 325.436 205.675C327.454 205.675 327.613 205.962 326.384 207.395C324.451 209.653 320.468 209.608 320.468 207.328C320.468 206.345 320.033 205.8 319.501 206.119C318.969 206.437 317.609 205.177 316.476 203.32C313.957 199.187 314.87 199.033 319.5 202.808ZM296.225 210.782C297.192 212.015 297.984 213.468 297.984 214.012C297.984 214.557 299.279 216.648 300.861 218.658C302.444 220.668 304.305 223.759 304.998 225.524C306.234 228.677 306.209 228.702 303.634 226.954C302.191 225.975 298.486 220.657 295.401 215.137C287.737 201.427 287.96 200.253 296.225 210.782ZM83.6023 211.034C79.4795 212.093 80.4463 214.328 85.0271 214.328C87.6281 214.328 90.4776 215.164 91.784 216.309C94.1803 218.41 98.6131 218.961 99.6793 217.29C100.212 216.455 87.3867 209.985 86.0163 210.395C85.7726 210.469 84.6863 210.756 83.6023 211.034ZM100.66 218.859C98.2972 221.46 98.8557 221.852 104.506 221.569C107.721 221.408 109.831 220.753 109.831 219.918C109.831 217.016 103.046 216.231 100.66 218.859ZM92.081 220.584C92.081 221.214 92.8798 221.73 93.856 221.73C94.8323 221.73 95.6311 221.214 95.6311 220.584C95.6311 219.953 94.8323 219.437 93.856 219.437C92.8798 219.437 92.081 219.953 92.081 220.584ZM111.606 220.584C111.204 221.214 112.003 221.73 113.381 221.73C114.76 221.73 115.559 221.214 115.156 220.584C114.754 219.953 113.955 219.437 113.381 219.437C112.807 219.437 112.009 219.953 111.606 220.584ZM395.019 230.331C395.019 230.647 395.285 230.905 395.61 230.905C395.936 230.905 396.202 230.647 396.202 230.331C396.202 230.016 395.936 229.758 395.61 229.758C395.285 229.758 395.019 230.016 395.019 230.331ZM325.595 231.67C326.029 232.089 326.739 232.089 327.174 231.67C327.607 231.249 327.252 230.905 326.384 230.905C325.517 230.905 325.162 231.249 325.595 231.67ZM395.019 232.625C395.019 232.94 395.285 233.198 395.61 233.198C395.936 233.198 396.202 232.94 396.202 232.625C396.202 232.31 395.936 232.052 395.61 232.052C395.285 232.052 395.019 232.31 395.019 232.625ZM60.0359 268.723C79.0713 274.014 85.4791 298.453 71.2257 311.406C60.585 321.076 42.2371 320.06 33.0792 309.293C24.6301 299.359 25.12 285.774 34.2732 276.15C41.2029 268.865 50.6981 266.127 60.0359 268.723ZM315.204 276.59C314.802 277.819 312.892 279.458 310.962 280.233C309.03 281.008 307.382 281.967 307.298 282.363C307.214 282.759 306.958 284.374 306.729 285.951C306.499 287.528 305.989 290.653 305.595 292.896C304.711 297.929 307.123 300.577 310.839 298.649C313.74 297.145 318.369 285.812 318.555 279.759C318.702 274.994 316.43 272.845 315.204 276.59ZM51.2969 280.336C46.8214 284.144 45.6925 288.935 48.9811 290.157C51.3679 291.045 56.5486 287.318 59.333 282.709C63.3481 276.064 58.1283 274.522 51.2969 280.336ZM34.8152 286.618C34.4199 287.616 34.0969 290.894 34.0969 293.903C34.0969 301.055 37.7191 306.347 45.0216 309.858C49.6319 312.075 51.6495 312.411 56.4811 311.768C61.0205 311.162 62.192 310.597 61.6654 309.266C61.2027 308.098 60.7222 307.958 60.1661 308.832C59.7152 309.537 57.4278 310.417 55.0824 310.786C49.8839 311.604 41.7271 308.059 38.3179 303.503C35.5122 299.751 34.3371 289.007 36.4624 286.527C37.3109 285.535 37.4268 284.804 36.7346 284.804C36.0742 284.804 35.2104 285.621 34.8152 286.618ZM60.7637 289.511C56.2882 293.318 55.1593 298.109 58.4479 299.332C60.8347 300.219 66.0154 296.492 68.7998 291.883C72.8149 285.239 67.5951 283.696 60.7637 289.511ZM366.618 315.1C366.618 315.995 366.941 317.543 367.336 318.541C367.873 319.896 367.309 320.355 365.108 320.355C362.912 320.355 362.019 319.631 361.601 317.515C361.292 315.952 361.319 314.404 361.66 314.075C362.975 312.801 366.618 313.554 366.618 315.1ZM360.488 317.786C360.795 319.875 360.298 320.355 357.826 320.355C355.666 320.355 354.785 319.746 354.785 318.253C354.785 313.808 359.841 313.394 360.488 317.786ZM353.601 319.208C353.601 319.839 353.037 320.355 352.348 320.355C351.659 320.355 351.424 319.839 351.826 319.208C352.229 318.577 352.792 318.061 353.079 318.061C353.367 318.061 353.601 318.577 353.601 319.208ZM201.268 320.807C200.767 321.616 199.49 322.748 198.43 323.324C196.748 324.236 196.935 324.778 199.909 327.595C202.124 329.692 203.316 330.242 203.316 329.168C203.316 328.259 204.29 326.808 205.48 325.942C207.553 324.435 207.53 324.262 204.911 321.851C202.83 319.934 201.961 319.685 201.268 320.807ZM353.601 323.795C353.601 325.478 352.812 326.089 350.643 326.089C347.859 326.089 346.678 324.007 348.474 322.267C350.239 320.555 353.601 321.558 353.601 323.795ZM360.488 324.082C360.245 325.74 359.158 326.793 357.447 327.029C355.279 327.327 354.785 326.848 354.785 324.449C354.785 322.049 355.349 321.502 357.826 321.502C360.302 321.502 360.796 321.981 360.488 324.082ZM367.336 323.316C366.941 324.314 366.618 325.862 366.618 326.756C366.618 327.744 365.408 328.382 363.533 328.382C361.207 328.382 360.625 327.936 361.167 326.568C361.562 325.57 361.885 324.022 361.885 323.128C361.885 322.14 363.095 321.502 364.97 321.502C367.296 321.502 367.878 321.948 367.336 323.316ZM346.501 325.515C346.501 325.831 346.235 326.089 345.91 326.089C345.584 326.089 345.318 325.831 345.318 325.515C345.318 325.2 345.584 324.942 345.91 324.942C346.235 324.942 346.501 325.2 346.501 325.515ZM346.501 330.103C346.501 333.03 344.886 333.929 343.507 331.768C342.524 330.224 343.692 327.236 345.281 327.236C345.952 327.236 346.501 328.526 346.501 330.103ZM351.826 330.183C351.826 331.382 350.894 332.538 349.755 332.752C347.673 333.14 346.757 329.663 348.499 327.976C349.896 326.621 351.826 327.901 351.826 330.183ZM364.007 330.057C364.247 330.289 363.831 331.588 363.084 332.941C361.377 336.031 358.823 335.302 359.234 331.842L359.542 329.247L357.355 331.864C354.826 334.892 352.338 334.09 353.291 330.554C353.864 328.433 354.523 328.232 358.756 328.888C361.404 329.299 363.768 329.824 364.007 330.057ZM343.286 335.065C344.517 337.504 344.705 337.553 345.484 335.638C346.243 333.769 346.344 333.755 346.418 335.51C346.544 338.488 342.512 340.13 338.942 338.553C335.547 337.054 334.161 334.556 336.085 333.403C336.882 332.926 337.068 333.137 336.555 333.939C336.091 334.667 336.367 335.263 337.167 335.263C337.968 335.263 339.721 336.167 341.063 337.27C342.894 338.777 343.142 338.823 342.053 337.451C341.257 336.447 340.955 335.286 341.383 334.871C341.812 334.456 341.274 334.116 340.19 334.116C339.105 334.116 338.218 333.386 338.218 332.491C338.218 330.512 341.025 329.372 341.558 331.135C341.769 331.828 342.547 333.597 343.286 335.065ZM350.034 334.976C350.023 335.45 349.499 336.611 348.868 337.557C347.94 338.948 347.718 338.783 347.702 336.697C347.693 335.277 348.217 334.116 348.868 334.116C349.519 334.116 350.043 334.503 350.034 334.976ZM354.156 335.206C354.539 335.804 353.73 336.876 352.361 337.587C350.077 338.771 349.98 338.682 351.186 336.497C352.656 333.837 353.147 333.623 354.156 335.206ZM358.077 336.587C357.826 337.315 356.35 338.366 354.795 338.924C352.017 339.92 352.006 339.898 354.153 337.6C356.528 335.057 358.806 334.468 358.077 336.587ZM354.785 366.837C354.785 367.803 353.788 368.964 352.571 369.417C350.526 370.177 350.611 370.481 353.675 373.391C356.838 376.394 357.03 376.434 357.744 374.251C358.157 372.992 359.257 371.961 360.189 371.961C362.538 371.961 362.337 371.356 358.873 367.998C355.374 364.609 354.785 364.441 354.785 366.837ZM73.8574 372.745C73.4385 374.026 71.9084 375.635 70.4588 376.321L67.8223 377.568L70.376 378.31C71.7795 378.719 73.274 380.167 73.6953 381.527L74.4609 384.002L75.7141 381.521C76.404 380.157 78.1045 378.707 79.4949 378.301C81.8581 377.61 81.8794 377.505 79.8239 376.709C78.6145 376.24 76.9483 374.633 76.1224 373.137C74.6692 370.506 74.5947 370.494 73.8574 372.745Z" fill="black"/>
</svg>
