<svg width="73" height="91" viewBox="0 0 73 91" fill="none" xmlns="http://www.w3.org/2000/svg">
<path fill-rule="evenodd" clip-rule="evenodd" d="M9.07471 6.1338C9.60644 11.865 9.41517 12.3818 6.14447 14.0573C1.45966 16.4579 1.16893 18.8688 0.825925 58.1697L0.542847 90.6104L35.1765 90.8062L69.8102 91.002L70.532 84.5457C70.9285 80.9943 71.6235 65.219 72.0774 49.4882C72.8884 21.3627 72.8578 20.8482 70.1941 18.4704C68.706 17.142 66.6581 16.0538 65.6444 16.0538C64.2226 16.0538 63.8592 14.5604 64.0505 9.51446L64.2991 2.97511L57.6825 1.96774C47.9431 0.483441 46.8172 1.1812 47.8398 8.06658C48.536 12.7506 48.3397 13.7773 46.7496 13.7773C45.6836 13.7773 44.4658 12.5479 44.0425 11.0454C43.0951 7.67388 36.5486 5.2801 32.9617 6.99434C31.6444 7.62266 29.96 9.15135 29.2179 10.3887C26.9418 14.1848 25.5595 12.9179 25.1553 6.6631L24.7702 0.687191L16.6375 0.344572L8.50473 0.00195312L9.07471 6.1338ZM21.5824 8.15765C21.5824 12.6902 21.4995 12.7756 17.4383 12.4262C13.655 12.1006 13.2597 11.6988 12.8988 7.80137C12.5086 3.6023 12.5762 3.53286 17.043 3.53286C21.5008 3.53286 21.5824 3.61596 21.5824 8.15765ZM59.8362 9.79334C59.8362 14.7255 59.6947 14.9155 56.0108 14.9155C52.327 14.9155 52.1854 14.7255 52.1854 9.79334C52.1854 4.86122 52.327 4.67113 56.0108 4.67113C59.6947 4.67113 59.8362 4.86122 59.8362 9.79334ZM39.1792 10.5901C41.6593 12.8041 40.9592 13.7773 36.8839 13.7773C32.8086 13.7773 32.1086 12.8041 34.5887 10.5901C36.5065 8.87817 37.2614 8.87817 39.1792 10.5901ZM11.3814 18.7424C11.3814 19.521 13.6103 24.2733 16.3353 29.3033C21.293 38.4549 26.28 43.3723 30.6052 43.3723C31.8714 43.3723 33.2626 43.8845 33.6961 44.5105C34.6384 45.8708 39.4342 46.0472 39.4342 44.7211C39.4342 44.2112 41.417 42.95 43.841 41.9175C53.0449 37.9996 63.6616 26.8628 63.6616 21.1271C63.6616 18.3702 66.5905 19.7668 67.5035 22.9574C67.9384 24.4816 67.7203 39.7594 67.0177 56.9085L65.74 88.088L51.6308 87.3629C43.8703 86.9634 29.9166 86.6344 20.621 86.6321L3.72046 86.6264L4.44346 72.1135C4.8413 64.1309 5.60255 48.8621 6.13555 38.1818C6.66855 27.5025 7.53309 18.146 8.05589 17.3901C9.1678 15.7852 11.3814 16.6856 11.3814 18.7424ZM51.3732 17.9206L58.8493 18.5842L58.153 22.4099C57.3 27.103 54.5368 30.4836 47.7506 35.1335C40.3612 40.1976 38.4511 40.6723 37.9423 37.5728C37.3328 33.8643 34.3337 33.4033 34.3337 37.0173C34.3337 40.785 30.7315 40.958 26.9571 37.3724C24.5445 35.08 15.2068 18.5512 15.2068 16.5729C15.2068 15.8182 36.699 16.6184 51.3732 17.9206ZM12.0598 59.7098C9.96475 61.0769 9.78879 62.3517 10.4812 71.1141C10.9096 76.5391 11.6084 81.4803 12.0343 82.095C12.4589 82.7085 17.0379 83.2116 22.2098 83.2116C33.1198 83.2116 32.4503 84.0141 33.6948 69.4306L34.5326 59.6347L29.6514 58.9142C21.7036 57.7429 14.5807 58.0639 12.0598 59.7098ZM38.8731 70.4061C39.35 76.5095 40.1024 81.8241 40.5435 82.2145C40.986 82.6061 45.1429 83.2538 49.7831 83.6544C55.8833 84.1803 58.5726 83.9834 59.4957 82.943C60.1983 82.1519 61.3931 77.1504 62.1518 71.829C63.8822 59.6836 63.478 59.308 48.6776 59.308H38.0048L38.8731 70.4061ZM30.2711 64.1491C30.8692 66.9492 27.0476 67.9224 24.2678 65.6778C22.2748 64.0683 21.7354 64.0318 20.4437 65.4228C18.4061 67.6128 13.9317 66.4119 13.9317 63.6744C13.9317 61.7006 14.7452 61.5106 21.8885 61.8145C28.2768 62.0865 29.9294 62.5475 30.2711 64.1491ZM55.692 62.3017C59.8031 63.2851 59.5468 67.2759 55.3733 67.2759C53.62 67.2759 52.1854 66.7637 52.1854 66.1376C52.1854 65.5116 51.3247 64.9994 50.2728 64.9994C49.2208 64.9994 48.3601 65.5116 48.3601 66.1376C48.3601 67.927 43.614 67.466 42.812 65.5981C41.4642 62.4656 48.6687 60.6216 55.692 62.3017ZM20.3073 72.3981C20.3073 73.3372 20.899 74.1055 21.622 74.1055C22.3462 74.1055 23.2681 73.3372 23.6711 72.3981C24.0753 71.459 25.5264 70.6907 26.8959 70.6907C28.9947 70.6907 29.325 71.3634 28.9909 74.9592L28.5956 79.2277L21.9012 79.5715L15.2068 79.9164V75.303C15.2068 71.4499 15.6263 70.6907 17.757 70.6907C19.1737 70.6907 20.3073 71.4499 20.3073 72.3981ZM48.8217 72.3981C49.2246 73.3372 50.1465 74.1055 50.8708 74.1055C51.5938 74.1055 52.1854 73.3372 52.1854 72.3981C52.1854 71.434 53.3267 70.6907 54.8084 70.6907C57.1074 70.6907 57.3841 71.2906 57.0399 75.5283L56.6484 80.366L49.954 80.7097L43.2596 81.0546V76.6313C43.2596 74.1988 43.6421 71.8665 44.1101 71.4499C45.5892 70.1295 48.0591 70.627 48.8217 72.3981Z" fill="black"/>
</svg>
