<svg width="114" height="51" viewBox="0 0 114 51" fill="none" xmlns="http://www.w3.org/2000/svg">
<path fill-rule="evenodd" clip-rule="evenodd" d="M14.7669 3.78371L20.6656 14.4927C21.5623 14.0602 22.5412 13.7831 23.5701 13.6945V1.60172C20.4334 1.70899 17.4583 2.47964 14.7669 3.78371ZM25.0859 1.60172V13.7013C26.1195 13.7999 27.1015 14.0887 27.999 14.534L33.9138 3.79573C31.216 2.48437 28.2322 1.70932 25.0859 1.60172ZM35.269 4.51305L29.307 15.3369C30.1236 15.9443 30.8354 16.6959 31.4089 17.5565L42.3994 10.9054C40.4757 8.29232 38.0478 6.10815 35.269 4.51305ZM43.2895 12.2013L32.165 18.9335C32.5742 19.8575 32.8398 20.8655 32.9318 21.9252H46.8871C46.3784 18.3671 45.1216 15.0655 43.2895 12.2013ZM47.0627 23.514H32.9384C32.8313 24.8795 32.4361 26.1608 31.8165 27.2896C31.4819 27.8991 31.082 28.464 30.6268 28.9737L32.8559 32.2004L34.9172 29.7447C36.0339 28.4145 38.0112 28.4145 39.1278 29.7447L44.6659 36.3424C46.248 33.0886 47.1402 29.4045 47.1402 25.5C47.1402 24.8311 47.1141 24.1687 47.0627 23.514ZM43.8849 37.8172L37.9898 30.7942C37.4768 30.183 36.5683 30.183 36.0552 30.7942L20.6829 49.1076C21.8699 49.3074 23.0874 49.4112 24.328 49.4112C32.6274 49.4112 39.8927 44.766 43.8849 37.8172ZM18.9666 48.7472L23.3473 43.5283L12.525 30.6353C12.0119 30.0241 11.1034 30.0241 10.5904 30.6353L4.68654 37.6688C7.78227 43.1465 12.9028 47.2163 18.9666 48.7472ZM3.91388 36.1841L9.45241 29.5859C10.569 28.2556 12.5464 28.2556 13.663 29.5859L15.8261 32.1628L17.9963 29.0214C17.5327 28.5096 17.1253 27.9412 16.7844 27.327C16.1529 26.1891 15.7501 24.8946 15.6418 23.514H1.59328C1.54195 24.1687 1.51576 24.8311 1.51576 25.5C1.51576 29.3414 2.37942 32.9693 3.91388 36.1841ZM1.76888 21.9252H15.6484C15.7416 20.8518 16.0129 19.8314 16.4312 18.8976L5.36634 12.2016C3.53429 15.0657 2.2776 18.3672 1.76888 21.9252ZM6.25637 10.9056L17.193 17.5241C17.7806 16.6504 18.5113 15.8902 19.3495 15.2808L13.4109 4.49937C10.622 6.0957 8.18563 8.28498 6.25637 10.9056ZM18.9039 27.7074L22.0568 23.1436C23.1763 21.523 25.4797 21.523 26.5993 23.1436L29.7176 27.6576C30.0127 27.2987 30.276 26.9103 30.5027 26.4972C31.1065 25.3973 31.4521 24.1218 31.4521 22.7593C31.4521 22.7473 31.4521 22.7353 31.452 22.7234C31.446 21.3743 31.1011 20.1114 30.5024 19.021C29.8801 17.8875 28.9832 16.9399 27.9073 16.2786C26.8555 15.6321 25.6324 15.2588 24.3245 15.2524C24.313 15.2524 24.3015 15.2523 24.2901 15.2523C22.9991 15.2523 21.7901 15.6097 20.7456 16.2345C19.6473 16.8916 18.7305 17.8449 18.0948 18.9902C17.4857 20.0876 17.1343 21.3616 17.1282 22.7233C17.1282 22.7353 17.1281 22.7473 17.1281 22.7593C17.1281 24.1345 17.4802 25.4211 18.0946 26.5281C18.328 26.9488 18.5995 27.3436 18.9039 27.7074ZM16.8526 33.3858L24.3568 42.3257L31.8293 33.4234L25.3716 24.0754C24.8572 23.3308 23.7988 23.3308 23.2845 24.0754L16.8526 33.3858ZM13.3609 2.7321C16.6572 0.984325 20.384 0 24.328 0C28.282 0 32.0177 0.989329 35.3202 2.74542C38.8345 4.61418 41.8569 7.35057 44.1316 10.6855C46.4794 14.1277 48.0311 18.2085 48.5037 22.6312C48.6044 23.5732 48.656 24.5304 48.656 25.5C48.656 30.0883 47.4992 34.3959 45.474 38.1171C41.2872 45.8106 33.3862 51 24.328 51C15.2085 51 7.26202 45.7401 3.09749 37.9606C1.12466 34.2753 0 30.0241 0 25.5C0 24.5304 0.0516602 23.5732 0.15231 22.6312C0.624855 18.2087 2.17656 14.1279 4.52424 10.6858C6.80432 7.34279 9.83582 4.60122 13.3609 2.7321Z" fill="white"/>
<path d="M63.4152 13.023V25.5831H61.8232V14.602H56.3111V25.5831H54.7191V13.023H63.4152Z" fill="white"/>
<path d="M76.2917 23.9144C75.0934 25.1824 73.6269 25.8164 71.8923 25.8164C70.1576 25.8164 68.6911 25.1824 67.4929 23.9144C66.2946 22.6464 65.6954 21.1093 65.6954 19.303C65.6954 17.4848 66.2946 15.9477 67.4929 14.6917C68.6911 13.4237 70.1576 12.7897 71.8923 12.7897C73.6269 12.7897 75.0934 13.4237 76.2917 14.6917C77.5014 15.9477 78.1062 17.4848 78.1062 19.303C78.1062 21.1093 77.5014 22.6464 76.2917 23.9144ZM68.5884 22.784C69.4786 23.717 70.5799 24.1836 71.8923 24.1836C73.2047 24.1836 74.3003 23.717 75.179 22.784C76.0692 21.839 76.5142 20.6787 76.5142 19.303C76.5142 17.9155 76.0692 16.7551 75.179 15.8221C74.3003 14.8771 73.2047 14.4046 71.8923 14.4046C70.5799 14.4046 69.4786 14.8771 68.5884 15.8221C67.7097 16.7551 67.2703 17.9155 67.2703 19.303C67.2703 20.6787 67.7097 21.839 68.5884 22.784Z" fill="white"/>
<path d="M84.7106 13.023C85.8176 13.023 86.7363 13.4117 87.4667 14.1893C88.2085 14.9548 88.5793 15.9118 88.5793 17.0602C88.5793 18.1966 88.2085 19.1535 87.4667 19.9311C86.7363 20.7086 85.8176 21.0974 84.7106 21.0974H81.9545V25.5831H80.3625V13.023H84.7106ZM84.7106 19.5363C85.3725 19.5363 85.9203 19.303 86.354 18.8365C86.7876 18.358 87.0045 17.7659 87.0045 17.0602C87.0045 16.3424 86.7876 15.7503 86.354 15.2838C85.9203 14.8173 85.3725 14.584 84.7106 14.584H81.9545V19.5363H84.7106Z" fill="white"/>
<path d="M99.1851 25.5831L98.2094 22.7661H92.8171L91.8413 25.5831H90.1466L94.6145 13.023H96.4119L100.88 25.5831H99.1851ZM93.3649 21.205H97.6616L95.5047 15.0147L93.3649 21.205Z" fill="white"/>
<path d="M111.912 19.0698C112.459 19.3449 112.893 19.7397 113.213 20.254C113.544 20.7684 113.709 21.3605 113.709 22.0304C113.709 23.0352 113.372 23.8785 112.699 24.5604C112.026 25.2422 111.204 25.5831 110.234 25.5831H105.064V13.023H109.857C110.793 13.023 111.586 13.3519 112.237 14.0098C112.887 14.6678 113.213 15.4812 113.213 16.4501C113.213 17.5626 112.779 18.4358 111.912 19.0698ZM109.857 14.584H106.656V18.4238H109.857C110.359 18.4238 110.782 18.2384 111.124 17.8676C111.466 17.4968 111.638 17.0422 111.638 16.5039C111.638 15.9776 111.461 15.529 111.107 15.1582C110.765 14.7754 110.348 14.584 109.857 14.584ZM110.234 24.0221C110.77 24.0221 111.221 23.8247 111.586 23.4299C111.951 23.0352 112.134 22.5507 112.134 21.9766C112.134 21.4143 111.946 20.9359 111.569 20.5411C111.204 20.1464 110.759 19.949 110.234 19.949H106.656V24.0221H110.234Z" fill="white"/>
<path d="M63.4152 28.5931V41.1532H61.8232V30.1721H56.3111V41.1532H54.7191V28.5931H63.4152Z" fill="white"/>
<path d="M76.4843 39.4845C75.286 40.7525 73.8195 41.3865 72.0849 41.3865C70.3502 41.3865 68.8837 40.7525 67.6854 39.4845C66.4871 38.2165 65.888 36.6794 65.888 34.8731C65.888 33.0549 66.4871 31.5178 67.6854 30.2618C68.8837 28.9938 70.3502 28.3598 72.0849 28.3598C73.8195 28.3598 75.286 28.9938 76.4843 30.2618C77.694 31.5178 78.2988 33.0549 78.2988 34.8731C78.2988 36.6794 77.694 38.2165 76.4843 39.4845ZM68.781 38.3541C69.6712 39.2871 70.7724 39.7537 72.0849 39.7537C73.3973 39.7537 74.4928 39.2871 75.3716 38.3541C76.2617 37.4091 76.7068 36.2488 76.7068 34.8731C76.7068 33.4855 76.2617 32.3252 75.3716 31.3922C74.4928 30.4472 73.3973 29.9747 72.0849 29.9747C70.7724 29.9747 69.6712 30.4472 68.781 31.3922C67.9023 32.3252 67.4629 33.4855 67.4629 34.8731C67.4629 36.2488 67.9023 37.4091 68.781 38.3541Z" fill="white"/>
<path d="M88.7043 41.1532H86.8897L83.9454 36.2009L81.001 41.1532H79.2036L83.0552 34.6937L79.4261 28.5931H81.2235L83.9454 33.1685L86.6672 28.5931H88.4646L84.8526 34.6758L88.7043 41.1532Z" fill="white"/>
<path d="M100.206 39.4845C99.0077 40.7525 97.5412 41.3865 95.8065 41.3865C94.0718 41.3865 92.6054 40.7525 91.4071 39.4845C90.2088 38.2165 89.6097 36.6794 89.6097 34.8731C89.6097 33.0549 90.2088 31.5178 91.4071 30.2618C92.6054 28.9938 94.0718 28.3598 95.8065 28.3598C97.5412 28.3598 99.0077 28.9938 100.206 30.2618C101.416 31.5178 102.02 33.0549 102.02 34.8731C102.02 36.6794 101.416 38.2165 100.206 39.4845ZM92.5027 38.3541C93.3928 39.2871 94.4941 39.7537 95.8065 39.7537C97.1189 39.7537 98.2145 39.2871 99.0932 38.3541C99.9834 37.4091 100.428 36.2488 100.428 34.8731C100.428 33.4855 99.9834 32.3252 99.0932 31.3922C98.2145 30.4472 97.1189 29.9747 95.8065 29.9747C94.4941 29.9747 93.3928 30.4472 92.5027 31.3922C91.6239 32.3252 91.1846 33.4855 91.1846 34.8731C91.1846 36.2488 91.6239 37.4091 92.5027 38.3541Z" fill="white"/>
<path d="M112.716 39.5742H114V43.5576H112.408V41.1532H104.499V43.5576H102.907V39.5742H103.952C104.693 38.6053 105.064 37.134 105.064 35.1602V28.5931H112.716V39.5742ZM105.749 39.5742H111.124V30.1541H106.656V35.1961C106.656 37.0981 106.354 38.5574 105.749 39.5742Z" fill="white"/>
</svg>
