<svg width="41" height="42" viewBox="0 0 41 42" fill="none" xmlns="http://www.w3.org/2000/svg">
<path d="M20.0399 13.483C18.5536 13.483 17.1006 13.9237 15.8648 14.7495C14.629 15.5752 13.6658 16.7489 13.097 18.1221C12.5282 19.4953 12.3794 21.0063 12.6693 22.464C12.9593 23.9218 13.675 25.2608 14.726 26.3118C15.777 27.3628 17.116 28.0785 18.5738 28.3685C20.0315 28.6585 21.5425 28.5096 22.9157 27.9408C24.2889 27.3721 25.4626 26.4088 26.2883 25.173C27.1141 23.9372 27.5548 22.4843 27.5548 20.9979C27.5548 19.0049 26.7631 17.0934 25.3537 15.6841C23.9444 14.2747 22.033 13.483 20.0399 13.483ZM20.0399 26.0079C19.049 26.0079 18.0804 25.7141 17.2565 25.1636C16.4326 24.6131 15.7905 23.8306 15.4113 22.9152C15.0321 21.9997 14.9329 20.9924 15.1262 20.0205C15.3195 19.0487 15.7966 18.156 16.4973 17.4554C17.1979 16.7547 18.0906 16.2775 19.0625 16.0842C20.0343 15.8909 21.0416 15.9901 21.9571 16.3693C22.8726 16.7485 23.655 17.3907 24.2055 18.2146C24.756 19.0384 25.0498 20.0071 25.0498 20.9979C25.0457 22.3254 24.5165 23.5973 23.5779 24.536C22.6392 25.4746 21.3673 26.0038 20.0399 26.0079ZM26.9286 5.3418H13.1512C10.8259 5.3418 8.59587 6.26551 6.95165 7.90972C5.30744 9.55393 4.38373 11.784 4.38373 14.1092V27.8866C4.38373 30.2119 5.30744 32.4419 6.95165 34.0862C8.59587 35.7304 10.8259 36.6541 13.1512 36.6541H26.9286C29.2538 36.6541 31.4839 35.7304 33.1281 34.0862C34.7723 32.4419 35.696 30.2119 35.696 27.8866V14.1092C35.696 11.784 34.7723 9.55393 33.1281 7.90972C31.4839 6.26551 29.2538 5.3418 26.9286 5.3418ZM33.191 27.8866C33.191 28.709 33.029 29.5234 32.7143 30.2832C32.3996 31.043 31.9383 31.7333 31.3568 32.3149C30.7753 32.8964 30.0849 33.3577 29.3251 33.6724C28.5653 33.9871 27.751 34.1491 26.9286 34.1491H13.1512C12.3288 34.1491 11.5144 33.9871 10.7546 33.6724C9.99483 33.3577 9.30446 32.8964 8.72294 32.3149C8.14142 31.7333 7.68013 31.043 7.36541 30.2832C7.05069 29.5234 6.88871 28.709 6.88871 27.8866V14.1092C6.88871 12.4483 7.5485 10.8554 8.72294 9.68101C9.89738 8.50657 11.4903 7.84678 13.1512 7.84678H26.9286C27.751 7.84678 28.5653 8.00876 29.3251 8.32348C30.0849 8.6382 30.7753 9.09949 31.3568 9.68101C31.9383 10.2625 32.3996 10.9529 32.7143 11.7127C33.029 12.4725 33.191 13.2868 33.191 14.1092V27.8866ZM30.0598 12.8567C30.0598 13.2283 29.9496 13.5916 29.7432 13.9005C29.5367 14.2095 29.2433 14.4503 28.9 14.5925C28.5567 14.7347 28.179 14.7719 27.8145 14.6994C27.4501 14.6269 27.1153 14.448 26.8526 14.1852C26.5899 13.9225 26.4109 13.5877 26.3384 13.2233C26.2659 12.8588 26.3031 12.4811 26.4453 12.1378C26.5875 11.7945 26.8283 11.5011 27.1373 11.2946C27.4463 11.0882 27.8095 10.978 28.1811 10.978C28.6793 10.978 29.1572 11.1759 29.5095 11.5283C29.8619 11.8806 30.0598 12.3585 30.0598 12.8567Z" fill="white"/>
</svg>
