<svg width="115" height="48" viewBox="0 0 115 48" fill="none" xmlns="http://www.w3.org/2000/svg">
<path fill-rule="evenodd" clip-rule="evenodd" d="M14.9322 3.56114L20.8398 13.6402C21.7378 13.2331 22.7182 12.9724 23.7486 12.8889V1.50751C20.6072 1.60846 17.6276 2.33377 14.9322 3.56114ZM25.2667 1.50751V12.8954C26.3018 12.9882 27.2853 13.2599 28.1842 13.6791L34.1079 3.57246C31.406 2.33823 28.4177 1.60877 25.2667 1.50751ZM35.4651 4.24758L29.4942 14.4347C30.3119 15.0064 31.0248 15.7138 31.5991 16.5237L42.6063 10.2639C40.6797 7.80453 38.2481 5.74885 35.4651 4.24758ZM43.4977 11.4836L32.3564 17.8197C32.7663 18.6894 33.0322 19.6381 33.1244 20.6355H47.1007C46.5912 17.2867 45.3326 14.1793 43.4977 11.4836ZM47.2766 22.1308H33.131C33.0237 23.416 32.628 24.6219 32.0074 25.6843C31.6723 26.258 31.2718 26.7896 30.8159 27.2694L33.0484 30.3063L35.1128 27.995C36.2311 26.743 38.2114 26.743 39.3297 27.995L44.8761 34.2046C46.4606 31.1422 47.3542 27.6748 47.3542 24C47.3542 23.3704 47.328 22.747 47.2766 22.1308ZM44.094 35.5926L38.19 28.9828C37.6762 28.4075 36.7663 28.4075 36.2525 28.9828L20.8571 46.219C22.0458 46.407 23.2652 46.5047 24.5077 46.5047C32.8196 46.5047 40.0957 42.1327 44.094 35.5926ZM19.1382 45.8797L23.5255 40.9678L12.6869 28.8333C12.1731 28.258 11.2632 28.258 10.7494 28.8333L4.83666 35.453C7.93704 40.6084 13.0653 44.4389 19.1382 45.8797ZM4.06283 34.0556L9.60969 27.8455C10.728 26.5935 12.7083 26.5935 13.8266 27.8455L15.993 30.2709L18.1664 27.3142C17.7021 26.8326 17.2941 26.2976 16.9527 25.7195C16.3202 24.6486 15.9169 23.4302 15.8084 22.1308H1.73875C1.68733 22.747 1.66111 23.3704 1.66111 24C1.66111 27.6154 2.52606 31.03 4.06283 34.0556ZM1.91461 20.6355H15.815C15.9084 19.6252 16.1801 18.6649 16.599 17.786L5.51747 11.4838C3.68267 14.1795 2.4241 17.2868 1.91461 20.6355ZM6.40885 10.2641L17.362 16.4933C17.9504 15.671 18.6822 14.9555 19.5216 14.3819L13.5741 4.2347C10.7811 5.73713 8.34101 7.79763 6.40885 10.2641ZM19.0754 26.0776L22.233 21.7822C23.3542 20.257 25.6611 20.2569 26.7823 21.7822L29.9054 26.0307C30.2009 25.6929 30.4646 25.3273 30.6916 24.9386C31.2963 23.9033 31.6425 22.7029 31.6425 21.4206C31.6425 21.4092 31.6424 21.3979 31.6424 21.3867C31.6363 20.117 31.2909 18.9284 30.6914 17.9021C30.0681 16.8353 29.1698 15.9434 28.0923 15.321C27.039 14.7125 25.814 14.3613 24.5041 14.3552C24.4926 14.3552 24.4812 14.3551 24.4697 14.3551C23.1768 14.3551 21.9659 14.6914 20.9198 15.2795C19.8199 15.898 18.9018 16.7952 18.2651 17.8731C17.655 18.906 17.3031 20.105 17.297 21.3867C17.297 21.3979 17.297 21.4092 17.297 21.4206C17.297 22.7149 17.6496 23.9258 18.2648 24.9676C18.4987 25.3635 18.7705 25.7352 19.0754 26.0776ZM17.0211 31.4219L24.5365 39.8359L32.0203 31.4573L25.5528 22.6592C25.0376 21.9584 23.9777 21.9584 23.4625 22.6592L17.0211 31.4219ZM13.5241 2.57139C16.8253 0.926423 20.5577 0 24.5077 0C28.4676 0 32.209 0.931134 35.5163 2.58392C39.0359 4.34276 42.0629 6.91819 44.341 10.057C46.6923 13.2966 48.2464 17.1375 48.7197 21.3C48.8205 22.1865 48.8722 23.0875 48.8722 24C48.8722 28.3184 47.7137 32.3726 45.6855 35.8749C41.4923 43.1158 33.5795 48 24.5077 48C15.3744 48 7.41601 43.0495 3.24521 35.7276C1.26942 32.2591 0.143066 28.258 0.143066 24C0.143066 23.0875 0.194804 22.1865 0.295605 21.3C0.768861 17.1376 2.3229 13.2968 4.67411 10.0572C6.95762 6.91086 9.99368 4.33056 13.5241 2.57139Z" fill="#231F1F"/>
<path d="M63.6536 12.2569V24.0782H62.0592V13.743H56.5388V24.0782H54.9444V12.2569H63.6536Z" fill="#231F1F"/>
<path d="M76.5495 22.5077C75.3494 23.7011 73.8807 24.2978 72.1434 24.2978C70.4062 24.2978 68.9375 23.7011 67.7374 22.5077C66.5373 21.3143 65.9373 19.8676 65.9373 18.1676C65.9373 16.4563 66.5373 15.0096 67.7374 13.8275C68.9375 12.6341 70.4062 12.0374 72.1434 12.0374C73.8807 12.0374 75.3494 12.6341 76.5495 13.8275C77.761 15.0096 78.3668 16.4563 78.3668 18.1676C78.3668 19.8676 77.761 21.3143 76.5495 22.5077ZM68.8346 21.4438C69.7261 22.3219 70.8291 22.761 72.1434 22.761C73.4578 22.761 74.5551 22.3219 75.4351 21.4438C76.3266 20.5544 76.7724 19.4623 76.7724 18.1676C76.7724 16.8616 76.3266 15.7695 75.4351 14.8914C74.5551 14.002 73.4578 13.5573 72.1434 13.5573C70.8291 13.5573 69.7261 14.002 68.8346 14.8914C67.9546 15.7695 67.5145 16.8616 67.5145 18.1676C67.5145 19.4623 67.9546 20.5544 68.8346 21.4438Z" fill="#231F1F"/>
<path d="M84.981 12.2569C86.0897 12.2569 87.0098 12.6228 87.7412 13.3546C88.4842 14.0752 88.8556 14.9758 88.8556 16.0566C88.8556 17.1262 88.4842 18.0268 87.7412 18.7586C87.0098 19.4904 86.0897 19.8563 84.981 19.8563H82.2208V24.0782H80.6264V12.2569H84.981ZM84.981 18.3871C85.644 18.3871 86.1926 18.1676 86.6269 17.7285C87.0612 17.2782 87.2784 16.7209 87.2784 16.0566C87.2784 15.3811 87.0612 14.8238 86.6269 14.3848C86.1926 13.9457 85.644 13.7261 84.981 13.7261H82.2208V18.3871H84.981Z" fill="#231F1F"/>
<path d="M99.4773 24.0782L98.5001 21.4269H93.0997L92.1225 24.0782H90.4252L94.8998 12.2569H96.7L101.175 24.0782H99.4773ZM93.6483 19.9577H97.9515L95.7913 14.1314L93.6483 19.9577Z" fill="#231F1F"/>
<path d="M112.223 17.948C112.772 18.207 113.206 18.5785 113.526 19.0626C113.857 19.5467 114.023 20.104 114.023 20.7345C114.023 21.6802 113.686 22.4739 113.012 23.1156C112.337 23.7574 111.514 24.0782 110.543 24.0782H105.365V12.2569H110.166C111.103 12.2569 111.897 12.5665 112.549 13.1857C113.2 13.8049 113.526 14.5705 113.526 15.4824C113.526 16.5295 113.092 17.3513 112.223 17.948ZM110.166 13.7261H106.96V17.3401H110.166C110.669 17.3401 111.091 17.1656 111.434 16.8166C111.777 16.4676 111.949 16.0397 111.949 15.5331C111.949 15.0377 111.771 14.6156 111.417 14.2665C111.074 13.9063 110.657 13.7261 110.166 13.7261ZM110.543 22.609C111.08 22.609 111.531 22.4232 111.897 22.0517C112.263 21.6802 112.446 21.2242 112.446 20.6838C112.446 20.1547 112.257 19.7043 111.88 19.3328C111.514 18.9613 111.069 18.7755 110.543 18.7755H106.96V22.609H110.543Z" fill="#231F1F"/>
<path d="M63.6536 26.9111V38.7324H62.0592V28.3972H56.5388V38.7324H54.9444V26.9111H63.6536Z" fill="#231F1F"/>
<path d="M76.7424 37.1619C75.5423 38.3553 74.0736 38.952 72.3363 38.952C70.599 38.952 69.1304 38.3553 67.9303 37.1619C66.7302 35.9685 66.1301 34.5218 66.1301 32.8218C66.1301 31.1105 66.7302 29.6638 67.9303 28.4817C69.1304 27.2883 70.599 26.6916 72.3363 26.6916C74.0736 26.6916 75.5423 27.2883 76.7424 28.4817C77.9539 29.6638 78.5596 31.1105 78.5596 32.8218C78.5596 34.5218 77.9539 35.9685 76.7424 37.1619ZM69.0275 36.098C69.919 36.9761 71.0219 37.4152 72.3363 37.4152C73.6507 37.4152 74.7479 36.9761 75.628 36.098C76.5195 35.2086 76.9652 34.1165 76.9652 32.8218C76.9652 31.5158 76.5195 30.4237 75.628 29.5456C74.7479 28.6562 73.6507 28.2115 72.3363 28.2115C71.0219 28.2115 69.919 28.6562 69.0275 29.5456C68.1474 30.4237 67.7074 31.5158 67.7074 32.8218C67.7074 34.1165 68.1474 35.2086 69.0275 36.098Z" fill="#231F1F"/>
<path d="M88.9807 38.7324H87.1634L84.2146 34.0715L81.2659 38.7324H79.4657L83.3232 32.6529L79.6886 26.9111H81.4887L84.2146 31.2175L86.9406 26.9111H88.7407L85.1233 32.636L88.9807 38.7324Z" fill="#231F1F"/>
<path d="M100.5 37.1619C99.2996 38.3553 97.8309 38.952 96.0936 38.952C94.3564 38.952 92.8877 38.3553 91.6876 37.1619C90.4875 35.9685 89.8875 34.5218 89.8875 32.8218C89.8875 31.1105 90.4875 29.6638 91.6876 28.4817C92.8877 27.2883 94.3564 26.6916 96.0936 26.6916C97.8309 26.6916 99.2996 27.2883 100.5 28.4817C101.711 29.6638 102.317 31.1105 102.317 32.8218C102.317 34.5218 101.711 35.9685 100.5 37.1619ZM92.7848 36.098C93.6763 36.9761 94.7793 37.4152 96.0936 37.4152C97.408 37.4152 98.5053 36.9761 99.3853 36.098C100.277 35.2086 100.723 34.1165 100.723 32.8218C100.723 31.5158 100.277 30.4237 99.3853 29.5456C98.5053 28.6562 97.408 28.2115 96.0936 28.2115C94.7793 28.2115 93.6763 28.6562 92.7848 29.5456C91.9048 30.4237 91.4647 31.5158 91.4647 32.8218C91.4647 34.1165 91.9048 35.2086 92.7848 36.098Z" fill="#231F1F"/>
<path d="M113.029 37.2463H114.314V40.9954H112.72V38.7324H104.8V40.9954H103.205V37.2463H104.251C104.994 36.3344 105.365 34.9496 105.365 33.092V26.9111H113.029V37.2463ZM106.051 37.2463H111.434V28.3803H106.96V33.1258C106.96 34.9158 106.657 36.2894 106.051 37.2463Z" fill="#231F1F"/>
</svg>
