<svg width="91" height="91" viewBox="0 0 91 91" fill="none" xmlns="http://www.w3.org/2000/svg">
<path fill-rule="evenodd" clip-rule="evenodd" d="M81.7137 3.4198C81.6158 5.41282 81.5771 7.78037 81.6295 8.68214C81.6818 9.58502 80.9032 11.6839 79.9004 13.347C78.391 15.8483 78.3318 16.6732 79.5555 18.1155C81.6067 20.5366 83.7296 20.2958 85.7945 17.4089C87.3506 15.2341 87.3586 14.6723 85.8594 12.4319C83.5805 9.02657 83.7342 7.5998 86.3796 7.5998C90.177 7.5998 90.4286 5.15757 86.9146 2.40434C82.5549 -1.01099 81.9277 -0.888379 81.7137 3.4198ZM85.8776 4.2558C86.2646 4.86887 86.0381 5.37047 85.3756 5.37047C84.7131 5.37047 84.1702 4.86887 84.1702 4.2558C84.1702 3.64274 84.3955 3.14114 84.6722 3.14114C84.9488 3.14114 85.4906 3.64274 85.8776 4.2558ZM4.67204 8.20952C3.94466 9.77116 3.35046 12.4687 3.35046 14.2042C3.35046 15.9386 2.58211 17.9829 1.643 18.7465C-0.544819 20.5243 -0.548234 23.0936 1.63617 23.914C2.57186 24.2663 3.05109 25.0064 2.70163 25.5615C1.70561 27.1399 3.33908 31.0078 5.00214 31.0078C5.82628 31.0078 6.77904 32.0544 7.12053 33.3341C7.90027 36.2512 11.5372 35.7964 12.4068 32.6742C12.7472 31.4514 13.6817 30.32 14.4842 30.1606C15.5838 29.941 15.5133 30.6823 14.1997 33.1702C11.8308 37.6556 12.0175 41.9917 14.7677 46.4102C18.7586 52.8195 28.1428 55.5783 53.1764 57.7029C73.2026 59.4016 80.1861 63.4624 80.1861 73.4085C80.1861 77.8549 79.5999 79.3909 76.8167 82.2356C71.5942 87.5737 64.8918 88.9492 43.2686 89.1186C25.6544 89.2568 25.0101 89.3337 33.5156 90.2745C38.5241 90.8285 48.5127 91.1306 55.7125 90.9455C67.1366 90.6524 69.4257 90.2623 73.6966 87.8813C82.6722 82.8798 85.7558 74.6536 81.634 66.7072C77.7194 59.1598 71.8981 56.732 53.1741 54.8415C35.9151 53.0993 33.2913 52.6679 25.8468 50.3506C11.3732 45.8462 13.1023 31.1237 28.7313 25.7856C33.7956 24.0556 38.2418 23.778 59.412 23.8683C73.0296 23.9274 84.1702 23.5908 84.1702 23.1215C84.1702 21.8385 79.3369 21.1842 64.2498 20.4251C46.4069 19.5267 30.7131 21.2466 23.4507 24.8949C20.4182 26.4176 17.7887 27.6638 17.6066 27.6638C16.7028 27.6638 16.2179 23.1271 17.067 22.6132C18.3089 21.8619 17.1501 18.7465 15.6282 18.7465C15.0022 18.7465 14.7927 19.5178 15.1615 20.4608C16.0426 22.7069 12.9225 23.8561 10.7449 22.0871C9.81945 21.3347 7.5565 20.9357 5.71586 21.2009C2.38176 21.6802 2.37607 21.6702 4.02775 18.5425C5.95491 14.8931 6.44096 14.7693 9.21615 17.2283C12.104 19.7875 14.9896 17.4423 14.0175 13.3247C12.2156 5.68926 7.13761 2.9104 4.67204 8.20952ZM11.4552 10.9505C12.8963 15.6622 12.1917 17.8179 9.93328 15.6064C9.19339 14.8808 7.66464 14.2878 6.53772 14.2878C4.1211 14.2878 4.15183 14.4528 5.73863 9.99521C7.44722 5.19435 9.8149 5.59005 11.4552 10.9505ZM84.6596 16.6431C84.0415 17.6229 80.7552 18.062 80.7552 17.1659C80.7552 16.9095 81.0717 15.8929 81.4576 14.9075C81.9983 13.5287 82.5185 13.4083 83.7217 14.3859C84.58 15.0837 85.0023 16.1002 84.6596 16.6431ZM14.005 24.7835C15.157 24.3499 15.602 24.7746 15.4017 26.1155C15.1706 27.6582 13.9561 28.1052 9.79783 28.1821C5.12394 28.2679 4.48877 27.9982 4.48877 25.9282C4.48877 22.4728 5.53942 21.989 9.1137 23.7992C10.8735 24.6898 13.0739 25.1324 14.005 24.7835ZM9.71132 32.9529C8.46829 34.1701 7.61569 32.2339 8.50813 30.2197C9.35503 28.3103 9.41649 28.3114 9.88775 30.2587C10.1598 31.3801 10.0801 32.5917 9.71132 32.9529ZM79.1423 35.3639C78.0973 36.4942 76.9271 39.3622 76.5424 41.7375C76.1565 44.1129 75.0979 47.1793 74.1906 48.5526C72.7279 50.7652 72.7484 51.1275 74.3716 51.7372C75.4701 52.1496 76.202 53.7146 76.202 55.6497C76.202 57.5034 76.8133 58.8744 77.6397 58.8744C78.4297 58.8744 79.5828 59.9701 80.2009 61.3099C81.7581 64.6874 84.1918 65.1667 84.9704 62.2507C85.3278 60.912 86.8304 59.3671 88.3102 58.8164C91.0603 57.7921 91.9049 55.0946 89.8617 53.8584C89.2356 53.4794 88.7234 53.9509 88.7234 54.9062C88.7234 56.1635 87.7001 56.5905 85.0239 56.45C82.9897 56.3441 80.556 56.4701 79.6169 56.7298C78.3819 57.072 77.9949 56.45 78.2191 54.4848C78.6403 50.7741 79.1844 50.4687 82.3762 52.1418C86.0791 54.0813 91 52.8229 91 49.9359C91 48.6786 90.2351 47.7277 89.2254 47.7277C88.2134 47.7277 87.7866 48.2606 88.2328 48.9673C89.6454 51.2044 86.0529 52.1898 83.1867 50.3506C81.0478 48.9784 79.8867 48.8714 77.7 49.8478L74.9271 51.0851L76.9487 47.7344C78.9931 44.3447 81.1764 43.4597 82.4627 45.4984C82.8497 46.1115 84.1599 46.6131 85.3756 46.6131C87.9197 46.6131 88.2134 44.2511 86.3272 38.9531C84.6255 34.1723 81.6283 32.6742 79.1423 35.3639ZM84.8748 39.5149C86.7609 43.9345 85.568 46.8193 83.0717 43.8732C82.2703 42.928 80.9089 42.1544 80.0472 42.1544C78.1793 42.1544 78.161 42.0028 79.5885 38.3255C81.1263 34.3651 82.8429 34.7508 84.8748 39.5149ZM84.1702 59.9891C84.1702 61.2152 83.6579 62.2184 83.0319 62.2184C82.4058 62.2184 81.8935 61.2152 81.8935 59.9891C81.8935 58.7629 82.4058 57.7597 83.0319 57.7597C83.6579 57.7597 84.1702 58.7629 84.1702 59.9891ZM13.067 61.4437C12.1211 62.856 11.1604 65.4899 10.9304 67.2957C10.7005 69.1015 9.80352 72.0431 8.93727 73.8343C7.70903 76.3713 7.67261 77.1906 8.77107 77.5495C9.54626 77.8025 10.1803 79.2037 10.1803 80.6639C10.1803 82.1776 11.1592 83.8318 12.4569 84.5117C13.709 85.1682 14.7335 86.3855 14.7335 87.2181C14.7335 88.0508 15.4393 88.9971 16.3021 89.3215C18.0528 89.9791 20.425 88.1199 20.425 86.0912C20.425 85.3655 21.4074 84.5206 22.6072 84.213C24.359 83.7638 24.7882 82.6424 24.7882 78.5092C24.7882 74.8687 24.3272 73.3651 23.2116 73.3651C22.2782 73.3651 21.9014 74.0472 22.2896 75.037C23.0853 77.0646 20.5753 77.2363 16.5286 75.4305C14.3169 74.444 13.2651 74.4753 11.9219 75.5665C9.83539 77.2619 9.73977 76.6455 11.5019 72.8601C12.8519 69.9564 15.1832 69.1427 16.441 71.1357C16.828 71.7488 18.2065 72.2504 19.5042 72.2504C21.6066 72.2504 21.7956 71.7566 21.2401 67.7048C20.655 63.43 17.8081 58.8744 15.7216 58.8744C15.2071 58.8744 14.013 60.0303 13.067 61.4437ZM19.2014 65.2191C20.6083 70.2083 19.7261 71.8714 16.9692 69.4269C15.8183 68.407 14.3328 67.9032 13.6669 68.3056C11.9321 69.3556 12.1746 67.0995 14.2133 63.2417C16.3158 59.259 17.6726 59.7973 19.2014 65.2191ZM20.1405 78.6006C24.0221 79.5069 23.4939 82.6903 19.5838 81.958C17.8684 81.637 15.5633 81.8476 14.4615 82.425C12.7449 83.3246 12.4569 82.9712 12.4569 79.9628C12.4569 76.8317 12.7358 76.534 15.0181 77.2262C16.4273 77.6543 18.7312 78.2729 20.1405 78.6006ZM18.1484 85.6264C18.1484 86.8525 17.6362 87.8557 17.0101 87.8557C16.3841 87.8557 15.8718 86.8525 15.8718 85.6264C15.8718 84.4002 16.3841 83.397 17.0101 83.397C17.6362 83.397 18.1484 84.4002 18.1484 85.6264Z" fill="white"/>
</svg>
