<svg width="85" height="85" viewBox="0 0 85 85" fill="none" xmlns="http://www.w3.org/2000/svg">
<path fill-rule="evenodd" clip-rule="evenodd" d="M76.326 3.19432C76.2346 5.05593 76.1984 7.26738 76.2473 8.10969C76.2962 8.95304 75.5689 10.9136 74.6322 12.467C73.2224 14.8034 73.1671 15.5738 74.3101 16.9211C76.226 19.1825 78.209 18.9576 80.1377 16.261C81.5912 14.2297 81.5987 13.7049 80.1983 11.6122C78.0697 8.43141 78.2133 7.09871 80.6843 7.09871C84.2313 7.09871 84.4662 4.81751 81.184 2.24581C77.1117 -0.944333 76.5259 -0.829804 76.326 3.19432ZM80.2154 3.9752C80.5769 4.54784 80.3653 5.01637 79.7465 5.01637C79.1277 5.01637 78.6205 4.54784 78.6205 3.9752C78.6205 3.40255 78.831 2.93403 79.0894 2.93403C79.3478 2.93403 79.8539 3.40255 80.2154 3.9752ZM4.36399 7.66823C3.68457 9.12691 3.12955 11.6465 3.12955 13.2676C3.12955 14.8877 2.41186 16.7972 1.53467 17.5104C-0.508897 19.1711 -0.512087 21.571 1.52829 22.3373C2.40229 22.6663 2.84992 23.3576 2.5235 23.8761C1.59315 25.3504 3.11892 28.9633 4.67233 28.9633C5.44213 28.9633 6.33207 29.941 6.65105 31.1362C7.37937 33.861 10.7765 33.4362 11.5888 30.5198C11.9067 29.3777 12.7796 28.3209 13.5292 28.172C14.5563 27.9669 14.4904 28.6593 13.2634 30.9832C11.0508 35.1728 11.2252 39.223 13.794 43.3502C17.5217 49.3369 26.2872 51.9138 49.6702 53.8983C68.3761 55.485 74.8991 59.278 74.8991 68.5684C74.8991 72.7216 74.3515 74.1564 71.7519 76.8134C66.8737 81.7996 60.6132 83.0844 40.4157 83.2427C23.9629 83.3718 23.3611 83.4436 31.3057 84.3224C35.9841 84.8398 45.3141 85.122 52.0392 84.9491C62.71 84.6753 64.8482 84.3109 68.8375 82.087C77.2213 77.4152 80.1016 69.7314 76.2516 62.3089C72.595 55.2591 67.1576 52.9914 49.6681 51.2256C33.5471 49.5983 31.0963 49.1953 24.1426 47.0307C10.6234 42.8234 12.2384 29.0716 26.8369 24.0854C31.5673 22.4695 35.7204 22.2103 55.4947 22.2946C68.2144 22.3498 78.6205 22.0353 78.6205 21.597C78.6205 20.3986 74.1059 19.7875 60.0136 19.0784C43.3471 18.2392 28.688 19.8458 21.9045 23.2535C19.072 24.6758 16.6159 25.8398 16.4457 25.8398C15.6015 25.8398 15.1486 21.6022 15.9417 21.1222C17.1018 20.4205 16.0194 17.5104 14.5978 17.5104C14.013 17.5104 13.8174 18.2309 14.1619 19.1117C14.9848 21.2097 12.0704 22.2831 10.0364 20.6308C9.17202 19.928 7.05827 19.5553 5.33899 19.8031C2.22473 20.2508 2.21941 20.2414 3.76219 17.3199C5.56228 13.9111 6.01628 13.7955 8.60849 16.0923C11.306 18.4829 14.0013 16.2922 13.0933 12.4462C11.4102 5.31414 6.66699 2.71851 4.36399 7.66823ZM10.6999 10.2285C12.046 14.6295 11.3878 16.6431 9.27834 14.5774C8.58723 13.8996 7.15928 13.3457 6.10666 13.3457C3.84938 13.3457 3.87808 13.4998 5.36026 9.33619C6.9562 4.85186 9.16777 5.22148 10.6999 10.2285ZM79.0777 15.5457C78.5003 16.4609 75.4307 16.8711 75.4307 16.034C75.4307 15.7946 75.7263 14.845 76.0867 13.9246C76.5918 12.6367 77.0777 12.5243 78.2016 13.4374C79.0033 14.0891 79.3977 15.0387 79.0777 15.5457ZM13.0816 23.1494C14.1576 22.7444 14.5733 23.1411 14.3862 24.3936C14.1704 25.8346 13.0359 26.2521 9.15182 26.3239C4.7861 26.4041 4.19281 26.1521 4.19281 24.2187C4.19281 20.9911 5.17419 20.5392 8.5128 22.23C10.1566 23.0619 12.2119 23.4753 13.0816 23.1494ZM9.07101 30.7801C7.90994 31.9171 7.11356 30.1086 7.94715 28.2272C8.73821 26.4437 8.79563 26.4447 9.23581 28.2636C9.48993 29.311 9.4155 30.4428 9.07101 30.7801ZM73.9241 33.0322C72.948 34.0879 71.855 36.7669 71.4956 38.9856C71.1352 41.2043 70.1464 44.0686 69.299 45.3513C67.9327 47.4181 67.9518 47.7564 69.468 48.326C70.494 48.7112 71.1777 50.173 71.1777 51.9805C71.1777 53.7119 71.7487 54.9926 72.5206 54.9926C73.2585 54.9926 74.3356 56.016 74.9129 57.2675C76.3675 60.4223 78.6407 60.87 79.368 58.1463C79.7018 56.8958 81.1053 55.4528 82.4875 54.9384C85.0564 53.9816 85.8453 51.462 83.9367 50.3073C83.352 49.9533 82.8735 50.3937 82.8735 51.286C82.8735 52.4604 81.9176 52.8592 79.4179 52.728C77.5179 52.6291 75.2447 52.7468 74.3675 52.9894C73.2138 53.309 72.8523 52.728 73.0618 50.8924C73.4552 47.4264 73.9634 47.1411 76.9448 48.7039C80.4036 50.5155 85 49.3401 85 46.6434C85 45.469 84.2855 44.5809 83.3424 44.5809C82.3972 44.5809 81.9984 45.0785 82.4152 45.7386C83.7347 47.8283 80.3791 48.7487 77.7018 47.0307C75.704 45.7491 74.6195 45.6491 72.577 46.5612L69.9869 47.7169L71.8752 44.5871C73.7848 41.4209 75.8241 40.5942 77.0256 42.4985C77.3871 43.0712 78.6109 43.5397 79.7465 43.5397C82.1228 43.5397 82.3972 41.3334 80.6353 36.3848C79.0458 31.9192 76.2462 30.5198 73.9241 33.0322ZM79.2786 36.9095C81.0405 41.0378 79.9262 43.7323 77.5945 40.9805C76.8459 40.0976 75.5743 39.375 74.7694 39.375C73.0246 39.375 73.0076 39.2334 74.3409 35.7986C75.7773 32.0993 77.3807 32.4595 79.2786 36.9095ZM78.6205 56.0337C78.6205 57.179 78.142 58.1161 77.5572 58.1161C76.9724 58.1161 76.494 57.179 76.494 56.0337C76.494 54.8885 76.9724 53.9514 77.5572 53.9514C78.142 53.9514 78.6205 54.8885 78.6205 56.0337ZM12.2055 57.3925C11.3219 58.7116 10.4245 61.1719 10.2098 62.8586C9.99498 64.5453 9.15713 67.293 8.348 68.9661C7.20075 71.3358 7.16672 72.1011 8.19276 72.4363C8.91684 72.6727 9.50907 73.9814 9.50907 75.3454C9.50907 76.7593 10.4235 78.3044 11.6356 78.9395C12.8052 79.5527 13.7621 80.6897 13.7621 81.4675C13.7621 82.2452 14.4213 83.1292 15.2272 83.4322C16.8625 84.0464 19.0783 82.3098 19.0783 80.4148C19.0783 79.737 19.9959 78.9478 21.1166 78.6605C22.7529 78.2409 23.1538 77.1935 23.1538 73.3328C23.1538 69.9323 22.7232 68.5278 21.6812 68.5278C20.8093 68.5278 20.4574 69.165 20.82 70.0896C21.5632 71.9834 19.2187 72.1438 15.4388 70.4571C13.3729 69.5356 12.3905 69.5648 11.1358 70.5841C9.1869 72.1677 9.09759 71.592 10.7435 68.0561C12.0045 65.3439 14.1821 64.5838 15.357 66.4454C15.7185 67.0181 17.0061 67.4866 18.2182 67.4866C20.182 67.4866 20.3585 67.0254 19.8396 63.2407C19.2931 59.2478 16.6339 54.9926 14.685 54.9926C14.2044 54.9926 13.089 56.0723 12.2055 57.3925ZM17.9353 60.9189C19.2495 65.5792 18.4255 67.1326 15.8503 64.8493C14.7754 63.8967 13.3878 63.4261 12.7658 63.8019C11.1454 64.7827 11.3719 62.6754 13.2762 59.0719C15.24 55.3518 16.5074 55.8547 17.9353 60.9189ZM18.8125 73.4182C22.4382 74.2646 21.9449 77.2382 18.2926 76.5542C16.6903 76.2543 14.5372 76.4511 13.508 76.9904C11.9046 77.8307 11.6356 77.5006 11.6356 74.6905C11.6356 71.7658 11.8961 71.4878 14.0279 72.1344C15.3442 72.5342 17.4962 73.1121 18.8125 73.4182ZM16.9518 79.9807C16.9518 81.126 16.4734 82.063 15.8886 82.063C15.3038 82.063 14.8253 81.126 14.8253 79.9807C14.8253 78.8354 15.3038 77.8983 15.8886 77.8983C16.4734 77.8983 16.9518 78.8354 16.9518 79.9807Z" fill="black"/>
</svg>
