<svg width="77" height="82" viewBox="0 0 77 82" fill="none" xmlns="http://www.w3.org/2000/svg">
<g clip-path="url(#clip0_191_192)">
<path d="M3.77001 39.6894C17.31 47.5794 32 47.6294 46.87 45.6894C53.57 44.8194 59.7301 42.19 64.0001 36.5H64.5001H65.0001C61.5001 40.39 62.4 44.7294 64.26 48.7494L65.88 48.8094L66.0001 36.5L65.5001 37C68.7101 46.33 67.35 50.9594 59.09 55.6894C48.92 61.5494 37.8 61.6894 26.58 60.4394C21.82 59.9194 17.12 58.8494 11.93 57.9494C12.5 62.9494 10.13 68.3294 15.1 73.0994V62.4794C34.45 67.9994 53.9401 71.17 73.0001 60C68.6001 63.29 70.88 66.9394 71.14 72.3394C74.79 67.5494 76.1301 63.72 74.0001 59.5L74.26 54.8694C74.47 59.2194 76.5 63.7994 75.48 67.8694C74.9534 69.5524 74.0871 71.1094 72.9347 72.4441C71.7823 73.7789 70.3682 74.863 68.78 75.6294C51.83 82.4394 34.53 83.1094 17.3 76.4294C11.54 74.1994 10.14 71.6394 10.73 64.5994C11.12 59.9394 10.96 56.5094 5.52001 54.5994C3.33001 53.8394 1.28001 50.3794 0.670012 47.7994C-0.0722924 44.8635 -0.222035 41.8091 0.229533 38.8146C0.681102 35.8202 2.00012 31 3.30001 30.3594L2.00012 38.5C1.91904 44.6854 2.00001 49.3994 6.00001 51.4194C5.00001 47.4094 8.39001 42.8994 3.77001 39.6894ZM49.55 57.1694C49 53.7994 48.55 50.9994 48 47.7194L42.46 48.4794L43.75 58.0694L49.55 57.1694ZM26.6 58.0494V48.8794L20.79 48.3094V57.4394L26.6 58.0494ZM16.35 64.1194C18.78 68.8194 14.9 75.0194 22.64 75.5994L23.16 66.7094L16.35 64.1194ZM34.63 58.2794C34.25 55.0794 33.91 52.1994 33.58 49.2794H29.12C28.39 58.3894 28.53 58.6294 34.63 58.2794ZM36.49 77.6994L37.08 68.9994H32.17L31.17 77.6894L36.49 77.6994ZM49.81 47.4594L52.12 56.2394C56.69 54.6194 57.05 52.6794 54.32 45.9194L49.81 47.4594ZM38.58 78.1994L43.76 77.9394V69.3194H39.31C39.07 72.2394 38.86 74.8394 38.58 78.1994ZM36.86 58.4994C41.73 58.1394 41.73 58.1394 40.38 49.1094H35.85L36.86 58.4994ZM18.34 56.4194V47.6294L14.16 46.4794C12.59 55.2894 12.7 55.5794 18.34 56.4194ZM28.75 77.2794L29.94 68.2794L24.71 67.6394C26.21 70.9094 22.19 75.6294 28.75 77.2794ZM56.63 44.9194C57.3 47.9194 57.89 50.5294 58.57 53.5594C63.97 50.5594 59.88 46.5594 60.81 42.4894L56.63 44.9194ZM59.21 76.2594C65.42 74.4894 62.4 70.2594 62.79 66.4294L57.87 68.1294C58.32 70.8294 58.69 73.0794 59.21 76.2594ZM64.78 74.5694C70.53 71.6394 67.87 67.7294 68.55 64.2794C61.49 65.9994 66.46 70.5494 64.78 74.5694ZM56.69 76.4994C56.47 73.4994 56.3 71.0894 56.05 67.6894C54.32 68.7794 52.64 69.2794 52.53 70.0194C52.3043 72.4728 52.2608 74.9395 52.4 77.3994L56.69 76.4994ZM7.83001 44.1494C8.62001 47.8494 6.18001 51.8394 10.33 54.0694C9.18001 50.9994 14.81 46.1894 7.83001 44.1494ZM46.58 77.6294L48.39 78.2794L50.79 68.9994L45.85 69.9294L46.58 77.6294Z" fill="white"/>
<path d="M64.82 36.8108L64.41 36.5608H63.93C51.3899 38.7808 38.8299 39.5608 26.2799 36.7708C23.1765 36.1416 20.1563 35.155 17.2799 33.8308C13.4299 32.0008 10.6999 29.0008 10.5899 24.2508C10.5199 21.2508 10.0999 18.2508 10.1299 15.3108C10.1299 8.44077 11.4999 6.73077 18.5799 4.19077C14.5799 6.85077 10.7499 9.71077 11.9099 15.2608C12.1699 16.5008 13.0199 18.2608 14.0099 18.6208C27.5399 23.2508 41.5299 25.4608 55.6899 23.5308C61.1899 22.7908 66.38 19.4608 71.57 17.0208C74.5699 15.5908 74.3999 12.8108 72.3399 10.8708C69.8599 8.54077 67.0499 6.00077 63.9199 5.05078C58.0154 3.41938 51.9733 2.33481 45.8699 1.81077C40.7899 1.30077 35.6199 1.70077 30.4899 1.47077C41.4899 -0.259225 52.41 -1.12923 63.2 2.73077C74.6199 6.81077 79.2 15.4008 75.3999 26.7808C74.59 29.2108 72 31.0808 70.08 33.0708C68.74 34.4708 67.1499 35.6308 65.6699 36.9008L65.5 37L64.82 36.8108ZM28.8199 35.0608V24.7708L21.9999 23.1408C22.1099 25.2208 22.2199 26.6908 22.2599 28.1408C22.2999 29.5908 22.2599 31.4008 22.2599 33.4308L28.8199 35.0608ZM36.5899 26.0008L30.9999 25.0008C30.9999 35.5908 30.9999 35.5908 36.5899 35.5008V26.0008ZM43.8499 26.4308L38.5499 26.0308L38.9999 35.9208L44.4199 35.6808L43.8499 26.4308ZM52.6699 35.6308L51.8499 26.5408L46.3899 26.7908L47 35.8308L52.6699 35.6308ZM16.4299 21.2508C17.9899 24.8508 13.8399 30.2508 19.9799 32.3308C18.2499 28.7508 22.5999 23.5108 16.4299 21.2508ZM61.83 24.7208C58.94 27.4808 60.66 30.9908 61.2999 34.3308C65.0499 31.7108 62.28 28.0008 61.83 24.7208ZM57.61 25.0008C52.54 27.7708 55.7799 31.7208 54.82 34.9008L58.5 34.6008C58.24 31.7208 58 29.1008 57.61 25.0008Z" fill="white"/>
</g>
<defs>
<clipPath id="clip0_191_192">
<rect width="76.71" height="81.03" fill="white"/>
</clipPath>
</defs>
</svg>
