<svg width="92" height="94" viewBox="0 0 92 94" fill="none" xmlns="http://www.w3.org/2000/svg">
<path fill-rule="evenodd" clip-rule="evenodd" d="M24.8383 0.978431C20.6453 2.94055 18.1593 8.70231 19.6603 12.9798C21.0423 16.917 18.4243 20.4815 15.5703 18.5497C12.9083 16.7491 8.64128 18.6787 6.04028 22.8608C4.84828 24.7774 3.11128 30.6713 2.13728 36.107C0.50428 45.2177 0.49628 46.092 2.02628 48.6218C2.93128 50.1181 4.22328 51.35 4.89828 51.3586C8.56628 51.4085 8.75128 52.8419 6.72528 65.5171C5.63828 72.32 4.43828 80.5661 4.05928 83.8403C3.59628 87.8404 2.75028 90.2651 1.48128 91.2283C0.44228 92.016 -0.19972 93.0279 0.05628 93.4754C0.48028 94.2186 33.7183 89.6454 43.1253 87.5489C45.3253 87.0581 47.5103 86.7732 47.9803 86.9151C48.4513 87.056 49.3863 86.6768 50.0593 86.0711C50.7323 85.4666 56.1983 84.4947 62.2043 83.9107C75.2553 82.6442 91.6253 77.4848 91.6253 74.6375C91.6253 71.1781 89.0733 71.0849 81.6793 74.2757C76.4973 76.5119 71.4803 77.7405 65.1793 78.3169C60.1993 78.772 55.0743 79.7546 53.7893 80.5001C52.5053 81.2444 51.3253 81.6929 51.1683 81.4957C51.0103 81.2986 50.5683 77.1143 50.1853 72.1987C49.6483 65.3188 49.7793 63.2603 50.7523 63.2603C51.4473 63.2603 53.2623 61.9666 54.7853 60.3848L57.5553 57.5093L59.3833 59.9547C61.0493 62.1844 61.3293 62.244 62.5613 60.6351C63.8053 59.011 64.0663 59.0229 65.8643 60.7857C67.7403 62.6254 67.8913 62.5994 69.7553 60.1053L71.6953 57.5093L74.6003 60.5257C77.4723 63.5073 80.6253 63.7012 80.6253 60.8973C80.6253 60.1562 78.7413 57.4703 76.4373 54.9275C74.1343 52.3846 72.5563 49.9718 72.9313 49.5655C73.3063 49.1603 74.4383 49.637 75.4483 50.6262C77.7233 52.857 79.9973 52.9253 81.6173 50.8115C82.6893 49.4117 83.1143 49.5558 84.8123 51.8949C88.2643 56.6502 92.1513 54.5689 89.1343 49.5807C85.9033 44.2371 80.3703 38.341 78.5873 38.341C77.5933 38.341 75.2023 40.3389 73.2733 42.781C69.8483 47.1169 69.7343 47.1679 68.4543 44.9479C67.7343 43.6976 66.4483 42.6748 65.5973 42.6748C64.0823 42.6748 57.5603 49.4843 52.3633 56.492L49.7493 60.0175L49.2243 55.4085C47.8993 43.7702 47.8823 43.976 50.3093 42.5686C53.4173 40.7658 53.3263 36.7213 50.1253 34.4493C48.7503 33.4731 47.6253 32.0311 47.6253 31.2445C47.6253 30.4579 47.1493 28.4589 46.5683 26.8013C45.7213 24.3884 45.3253 24.1046 44.5833 25.3765C44.0733 26.2498 43.6493 28.3062 43.6403 29.9443C43.6113 35.7289 37.1013 32.7212 33.6123 25.3115C31.2273 20.2464 31.1983 19.9225 33.1403 19.9225C35.1063 19.9225 38.6213 13.6537 38.6063 10.1715C38.5773 3.39235 33.9653 2.99797 33.4393 9.7305C33.0753 14.385 31.0273 16.2052 27.2953 15.19C21.5033 13.6147 23.5633 4.75424 29.7213 4.75424C32.6593 4.75424 34.4433 2.99472 32.9883 1.53099C31.1783 -0.288116 28.0033 -0.503721 24.8383 0.978431ZM27.2783 21.5151C28.4323 22.3906 30.3283 25.3018 31.4923 27.9844C34.0383 33.8534 37.1513 36.2608 43.1393 36.9921C47.9363 37.5772 48.9353 38.8286 45.5383 39.9965C42.0863 41.1829 36.7883 39.5133 33.2113 36.1102C31.2113 34.2077 29.2123 33.1632 28.2973 33.5435C26.8403 34.1492 24.6253 42.3368 24.6253 47.1159C24.6253 50.364 27.2003 55.1258 30.0533 57.1507C33.5813 59.6546 35.4503 64.0794 36.6143 72.6765C37.1633 76.734 37.8933 81.1512 38.2353 82.4914C38.6873 84.2596 38.4333 84.9292 37.3133 84.9292C36.2893 84.9292 35.2093 82.824 34.1153 78.6994C32.2633 71.7176 28.1833 64.1996 23.7473 59.595C20.3453 56.0629 19.1383 56.4172 18.2543 61.205C17.9093 63.0783 16.0453 68.4045 14.1133 73.0395C11.2283 79.9637 10.7773 81.9703 11.5883 84.2824C12.4863 86.8425 12.3523 87.0961 10.1003 87.0961C6.99228 87.0961 6.99228 86.9812 10.0773 67.2506C14.2183 40.769 18.5343 24.1241 21.9283 21.5487C24.5633 19.5476 24.6863 19.5476 27.2783 21.5151ZM14.6303 23.9854C14.6333 24.4329 13.6213 29.55 12.3803 35.3583C10.5863 43.7572 9.76728 45.9187 8.37528 45.9219C7.36028 45.9241 6.64028 45.1288 6.66028 44.0291C6.73828 39.8264 9.47128 28.4654 11.0203 25.9031C12.5873 23.3115 14.6193 22.2324 14.6303 23.9854ZM33.9713 43.2165C35.9453 44.1104 39.0923 44.8417 40.9643 44.8417H44.3673L44.9793 52.155C45.3163 56.1767 45.8833 64.8768 46.2403 71.4858C46.7963 81.7688 46.6663 83.5965 45.3413 84.148C43.2253 85.0278 40.9953 79.6181 40.0803 71.3861C39.0763 62.3567 38.1903 60.3003 33.0873 55.1518C29.4393 51.4713 28.6253 49.9545 28.6253 46.8428C28.6253 43.6434 29.2293 41.5914 30.1703 41.5914C30.2863 41.5914 31.9963 42.3227 33.9713 43.2165ZM80.0353 44.4376C80.9373 46.9826 78.7513 49.5536 77.0133 47.9913C76.0333 47.1104 75.9433 46.2231 76.6813 44.7279C77.9263 42.2089 79.2073 42.0973 80.0353 44.4376ZM67.0683 50.5005C68.7953 53.1712 69.1323 57.375 67.6973 58.3371C67.1873 58.6784 66.4813 57.9763 66.1303 56.7759C65.3553 54.1301 63.0803 53.9123 62.1993 56.3988C61.7523 57.6632 61.2433 57.8625 60.5073 57.0651C59.7723 56.2688 60.1573 54.7531 61.7903 52.0228C64.5313 47.4398 65.0023 47.3044 67.0683 50.5005ZM27.3243 70.9224C29.0843 74.7535 30.8113 79.9583 31.1623 82.4914L31.8013 87.0961H25.2363C19.3253 87.0961 18.5073 86.8241 17.0223 84.369C15.4453 81.7623 15.5113 81.3072 18.4993 74.0666C20.2183 69.9007 21.6253 65.724 21.6253 64.7858C21.6253 61.3545 24.2043 64.1314 27.3243 70.9224Z" fill="black"/>
</svg>
