<svg width="91" height="91" viewBox="0 0 91 91" fill="none" xmlns="http://www.w3.org/2000/svg">
<path fill-rule="evenodd" clip-rule="evenodd" d="M37.9234 2.41423C33.6857 8.08463 39.9432 16.1378 45.2915 11.8951C47.9828 9.75861 48.6439 4.05427 46.5006 1.45911C44.594 -0.849519 39.9795 -0.335513 37.9234 2.41423ZM45.4607 5.71694C45.9059 9.48967 43.2707 11.8134 40.5472 10.0477C38.4444 8.68535 37.6868 5.00939 39.145 3.24493C40.7164 1.34098 45.1493 3.07653 45.4607 5.71694ZM55.9622 10.4058C53.52 14.6775 50.044 20.1996 48.2381 22.6754L44.9531 27.177L42.457 22.8149C41.0849 20.4157 39.6121 17.8244 39.1834 17.0565C38.6354 16.0737 38.132 16.1743 37.4802 17.3971C36.7537 18.7619 36.1995 18.4263 34.8855 15.8261C33.9669 14.0064 32.5045 11.1046 31.6348 9.37656C30.765 7.64854 29.3981 6.23471 28.5968 6.23471C27.7956 6.23471 24.2895 12.5976 20.8043 20.373C17.32 28.1497 11.5648 38.6849 8.01418 43.7848C-0.530873 56.0619 -0.422931 55.862 0.307752 58.1682C0.851613 59.8836 2.5984 60.0935 12.4336 59.6235C18.7523 59.3218 24.8479 58.4748 25.9792 57.7421C27.4458 56.792 29.2974 56.831 32.4412 57.8778C36.7278 59.3042 44.6002 59.5732 47.7461 58.3994C48.6024 58.0802 49.9195 58.2875 50.673 58.8606C51.7192 59.6561 51.2885 60.8186 48.8567 63.7631C40.4756 73.9113 49.3206 80.8485 77.5163 86.2361C88.8377 88.4002 92.8534 87.9466 90.2254 84.8009C89.3608 83.7654 82.82 81.9808 74.5219 80.5167C58.0307 77.6049 52.5921 75.8542 50.2319 72.696C48.0606 69.7917 49.0632 66.5531 52.125 66.577C55.4816 66.6046 57.3021 68.3226 56.9077 71.0899C56.6493 72.8996 57.2834 73.5695 59.5492 73.8824C61.188 74.1099 63.0334 73.6851 63.6489 72.9399C64.4491 71.9709 64.4128 71.5851 63.5222 71.5851C62.8372 71.5851 62.2768 70.454 62.2768 69.0716C62.2768 67.6892 62.8881 66.5581 63.6354 66.5581C64.3827 66.5581 65.8939 65.7614 66.9951 64.7861C68.9235 63.0782 68.9287 62.9249 67.13 60.5183C65.7319 58.6482 65.6001 57.8854 66.6027 57.4807C67.6282 57.0672 67.5119 56.1473 66.1035 53.5446C65.0936 51.6771 64.5591 49.5758 64.9172 48.8746C65.2753 48.1721 64.283 45.5568 62.7106 43.0622L59.8533 38.5266L57.93 41.4033C56.0379 44.2322 55.9705 44.241 53.8179 41.9085C52.6139 40.6052 50.4924 37.3729 49.1027 34.725C46.7352 30.212 46.6802 29.7231 48.2236 26.8703C49.8977 23.7775 51.8977 22.8048 51.8977 25.0858C51.8977 27.5138 54.9762 26.3036 58.5995 22.4517L62.2591 18.5608L65.5119 21.8748C68.4689 24.8872 68.9256 25.0129 70.5322 23.2522C72.771 20.799 73.5982 20.8217 75.948 23.3955C77.7778 25.4012 77.7477 25.6325 75.1125 29.8161C73.2899 32.7079 72.7637 34.4435 73.5349 35.0203C74.3144 35.6047 73.8525 37.3792 72.1161 40.4733C69.184 45.6975 68.8052 48.3178 71.1384 47.2345C72.142 46.7683 71.7144 48.113 69.9863 50.8565C67.02 55.5654 66.9702 55.475 73.6937 57.4782C76.8167 58.4069 77.3263 59.0768 77.3263 62.245C77.3263 65.3089 77.7965 65.9951 80.1142 66.3194C82.6549 66.675 82.931 66.2917 83.2279 61.9937C83.5133 57.8703 83.971 57.1477 86.8761 56.2428C91.3474 54.8491 91.8798 53.336 89.2986 49.3634C87.6172 46.7746 87.4262 45.7855 88.4527 44.9975C89.4906 44.2033 89.2882 42.8736 87.532 38.9313C86.2949 36.1551 85.7116 33.8829 86.2347 33.8829C86.7578 33.8829 87.1864 33.3375 87.1864 32.6702C87.1864 30.9824 80.9715 22.5723 79.7239 22.5723C77.7156 22.5723 69.9956 14.9514 66.4284 9.44945C64.4304 6.36667 62.257 3.57294 61.599 3.24116C60.941 2.90813 58.4043 6.13292 55.9622 10.4058ZM68.0734 16.3804C70.2904 19.0911 70.4814 19.8502 69.2598 21.0768C68.1098 22.233 67.294 21.8849 65.378 19.4154C62.256 15.3913 61.2503 15.478 57.9311 20.0588C56.4282 22.1324 54.6897 23.829 54.0669 23.829C51.9766 23.829 52.9086 20.2637 56.8278 13.2674L60.7199 6.31891L63.0759 9.73222C64.3712 11.6098 66.6204 14.6021 68.0734 16.3804ZM32.1402 16.0348C33.8953 19.9746 35.5549 22.0784 37.1201 22.3473C39.0994 22.6879 45.1991 31.1018 44.2775 32.219C44.1114 32.4188 42.4466 31.886 40.5763 31.0339C37.3941 29.5837 37.0287 29.7068 34.8969 32.9404C32.0074 37.3239 31.286 37.2787 29.9461 32.6262C28.7089 28.3294 27.0254 27.9449 22.769 30.9887C21.1291 32.1625 19.4913 32.7645 19.1301 32.3271C18.7689 31.8898 20.7036 26.4091 23.4291 20.1481C26.1557 13.8882 28.6383 9.07117 28.9476 9.44442C29.2559 9.81893 30.6934 12.7836 32.1402 16.0348ZM81.7094 28.7668C82.6466 30.5815 82.6591 31.3117 81.7592 31.6749C81.0109 31.9765 81.6108 33.8289 83.3534 36.5962C86.5595 41.6848 86.7619 42.6801 84.5917 42.6801C82.4609 42.6801 82.6124 43.4329 85.7406 48.3995L88.4454 52.6938L85.6732 53.9706C82.629 55.3719 72.3527 55.7175 71.3086 54.4545C70.9484 54.0184 72.0382 51.6268 73.73 49.141C77.372 43.7923 77.6107 42.2013 74.6019 43.3588C72.2116 44.2774 72.5022 42.9164 75.6366 38.5052C76.5324 37.246 77.3347 34.9839 77.4218 33.4783C77.6138 30.1266 78.8656 26.3425 79.782 26.3425C80.1546 26.3425 81.0223 27.4334 81.7094 28.7668ZM28.026 33.839C28.026 35.9704 30.7224 38.9099 32.6779 38.9099C33.0276 38.9099 34.434 37.4483 35.8009 35.6612C38.1673 32.5697 38.4787 32.493 42.239 34.0828C44.4113 35.0027 46.5785 36.4982 47.0538 37.4081C47.5302 38.3167 49.33 41.0061 51.0539 43.3839C52.7779 45.7616 53.849 47.7071 53.4349 47.7071C53.0207 47.7071 53.165 48.4146 53.7566 49.278C54.5226 50.3977 54.2974 51.6457 52.974 53.6225C51.9527 55.1495 50.9429 56.2102 50.7291 55.9802C50.5152 55.7514 47.7835 55.9726 44.6573 56.4728C40.9894 57.061 37.1772 56.8096 33.9119 55.7665C30.4287 54.6543 28.0281 54.5299 26.2065 55.3681C23.5402 56.596 2.07841 58.0701 2.07841 57.0258C2.07841 55.4247 17.0886 35.2968 17.5836 36.2343C17.9044 36.84 19.8006 36.0257 21.7986 34.4246C26.3072 30.8127 28.026 30.6506 28.026 33.839ZM60.7199 45.1936C61.0728 45.8848 60.8351 46.4503 60.1916 46.4503C59.5481 46.4503 60.0536 48.206 61.3157 50.35C62.912 53.0658 63.2482 54.5198 62.4241 55.1369C61.5658 55.7791 61.6602 56.6978 62.7625 58.4635C63.6011 59.8057 64.3017 61.584 64.3194 62.4172C64.3598 64.2847 58.0566 65.843 55.0851 64.7007L52.9014 63.8624L55.1412 60.0533C56.835 57.1728 57.0654 56.0078 56.0867 55.2751C55.0831 54.5236 55.1754 53.5999 56.4988 51.153C57.4381 49.4187 58.1324 47.5098 58.0421 46.9103C57.5906 43.8979 59.4495 42.7052 60.7199 45.1936ZM79.6025 62.4499C79.3388 63.6727 79.1063 62.9764 79.0856 60.9028C79.0648 58.8292 79.2797 57.8288 79.5641 58.6796C79.8484 59.5305 79.8661 61.2271 79.6025 62.4499ZM69.5421 61.5312C69.5421 62.2224 70.0091 62.7879 70.58 62.7879C71.1508 62.7879 71.6179 62.2224 71.6179 61.5312C71.6179 60.84 71.1508 60.2744 70.58 60.2744C70.0091 60.2744 69.5421 60.84 69.5421 61.5312ZM85.6296 65.3014C85.9825 65.9926 86.4765 66.5581 86.7287 66.5581C86.9809 66.5581 87.1864 65.9926 87.1864 65.3014C87.1864 64.6102 86.6913 64.0447 86.0873 64.0447C85.4832 64.0447 85.2767 64.6102 85.6296 65.3014ZM11.0739 69.9099C9.77135 71.4871 10.3806 73.112 11.9925 72.3617C12.8788 71.9508 14.7201 72.4987 16.0849 73.5808C18.7793 75.7197 22.9631 75.574 23.5744 73.3206C23.8142 72.4409 22.9973 72.1368 21.3907 72.5088C19.9667 72.8381 17.7663 72.2059 16.4482 71.0874C13.9084 68.9334 12.1907 68.5576 11.0739 69.9099ZM67.4663 70.3283C67.4663 71.0196 67.9333 71.5851 68.5042 71.5851C69.075 71.5851 69.5421 71.0196 69.5421 70.3283C69.5421 69.6371 69.075 69.0716 68.5042 69.0716C67.9333 69.0716 67.4663 69.6371 67.4663 70.3283ZM77.371 70.2416C77.042 70.8851 77.2485 71.7661 77.8287 72.2009C78.4089 72.6345 78.8832 72.1079 78.8832 71.0309C78.8832 68.8228 78.2605 68.4985 77.371 70.2416ZM32.6965 72.8418C32.3437 73.533 32.1994 74.13 32.3758 74.1677C32.5523 74.2054 34.707 74.3851 37.1626 74.5673C42.0408 74.928 43.9173 73.577 40.2099 72.3731C36.6945 71.2332 33.4137 71.4368 32.6965 72.8418ZM71.6179 77.8688C71.6179 78.56 72.0849 79.1255 72.6558 79.1255C73.2266 79.1255 73.6937 78.56 73.6937 77.8688C73.6937 77.1776 73.2266 76.612 72.6558 76.612C72.0849 76.612 71.6179 77.1776 71.6179 77.8688ZM18.3942 86.8067C19.92 88.6654 29.2154 89.104 28.7234 87.2943C28.5356 86.6031 25.8495 85.8641 22.7545 85.6518C18.3133 85.3464 17.3947 85.5902 18.3942 86.8067ZM47.1545 89.3227C46.5754 90.4563 48.9677 91.4642 50.6004 90.7742C51.3144 90.4739 51.8977 89.7437 51.8977 89.153C51.8977 87.9089 47.8011 88.0559 47.1545 89.3227ZM67.4663 89.1794C67.4663 89.8706 68.3724 90.4362 69.4808 90.4362C70.5893 90.4362 71.784 89.8706 72.1368 89.1794C72.5011 88.4669 71.6283 87.9227 70.1223 87.9227C68.6619 87.9227 67.4663 88.4882 67.4663 89.1794Z" fill="black"/>
</svg>
