<svg width="42" height="26" viewBox="0 0 42 26" fill="none" xmlns="http://www.w3.org/2000/svg">
<path fill-rule="evenodd" clip-rule="evenodd" d="M41.0297 2.64655C41.3354 1.70468 41.0297 1.01998 39.677 1.01998H35.1792C34.0446 1.01998 33.5207 1.61951 33.215 2.26078C33.215 2.26078 30.9012 7.73835 27.6702 11.2896C26.6224 12.3166 26.1423 12.659 25.5746 12.659C25.2689 12.659 24.8755 12.3166 24.8755 11.3756V2.6023C24.8755 1.49008 24.5268 0.976562 23.5658 0.976562H16.4923C15.7932 0.976562 15.3569 1.49008 15.3569 2.00361C15.3569 3.07324 16.9724 3.33041 17.1467 6.32554V12.8335C17.1467 14.2455 16.8891 14.5035 16.3171 14.5035C14.7892 14.5035 11.0781 8.98333 8.85192 2.69331C8.41905 1.4475 7.97932 0.976562 6.84392 0.976562H2.30317C0.993417 0.976562 0.775269 1.57525 0.775269 2.21737C0.775269 3.373 2.30317 9.19208 7.89172 16.8941C11.6028 22.1545 16.8856 24.9818 21.6445 24.9818C24.5268 24.9818 24.8755 24.3397 24.8755 23.2701V19.2905C24.8755 18.0071 25.1375 17.7934 26.0547 17.7934C26.7092 17.7934 27.8884 18.1349 30.5517 20.6599C33.6075 23.655 34.1314 25.0244 35.8345 25.0244H40.3314C41.6412 25.0244 42.2527 24.3823 41.9031 23.1415C41.5106 21.9007 40.0257 20.1038 38.1044 17.9645C37.0566 16.7672 35.4849 15.4404 35.0048 14.7982C34.3504 13.9424 34.5247 13.6 35.0048 12.8302C34.961 12.8302 40.4628 5.21333 41.0297 2.64321" fill="white"/>
</svg>
